<svg xmlns="http://www.w3.org/2000/svg" viewBox="0 0 243.78 85.053">
  <path fill="#c62026" d="M9.62 38.79c-1.184 0-2.2-.272-3.053-.815-.85-.544-1.519-1.335-2-2.374h-.183l-1.159 2.827H0l5.98-28.191h4.256L8.95 16.27a52.928 52.928 0 0 1-.688 2.835 60.544 60.544 0 0 1-.725 2.546h.145c1.087-1.365 2.083-2.31 2.99-2.836a5.722 5.722 0 0 1 2.916-.788c1.751 0 3.116.626 4.095 1.875.978 1.25 1.467 2.975 1.467 5.173 0 2.44-.42 4.732-1.259 6.876-.84 2.144-1.99 3.82-3.45 5.027-1.463 1.208-3.07 1.812-4.82 1.812m2.41-17.284c-.979 0-1.958.483-2.936 1.449-.978.967-1.767 2.238-2.364 3.814a13.703 13.703 0 0 0-.897 4.9c0 1.16.281 2.063.842 2.709.562.647 1.356.97 2.383.97 1.026 0 1.986-.474 2.88-1.423.894-.948 1.601-2.216 2.12-3.804.52-1.588.78-3.246.78-4.973 0-2.428-.937-3.642-2.809-3.642M27.414 38.79c-1.703 0-3.05-.613-4.04-1.84-.991-1.225-1.486-2.95-1.486-5.171 0-2.44.42-4.723 1.259-6.85.84-2.124 1.996-3.806 3.47-5.044 1.473-1.238 3.092-1.857 4.855-1.857 1.172 0 2.18.275 3.026.824.845.55 1.504 1.35 1.975 2.4h.18l1.124-2.862h3.26l-4.275 20.038h-3.297l.38-3.19h-.108c-1.91 2.369-4.016 3.552-6.323 3.552m1.558-3.442c.99 0 1.963-.468 2.917-1.404.954-.936 1.739-2.19 2.355-3.76.616-1.57.924-3.285.924-5.145 0-1.063-.284-1.917-.851-2.564-.568-.646-1.311-.97-2.23-.97-1.026 0-1.992.466-2.898 1.396-.905.93-1.63 2.196-2.174 3.796a15.372 15.372 0 0 0-.815 4.973c0 1.232.245 2.153.734 2.763s1.168.915 2.038.915m26.478-3.08c0 2.09-.713 3.699-2.138 4.828-1.425 1.13-3.406 1.694-5.942 1.694-2.295 0-4.24-.404-5.834-1.214v-3.677c1.848 1.087 3.732 1.63 5.653 1.63 1.171 0 2.12-.241 2.844-.724.725-.483 1.087-1.142 1.087-1.975 0-.616-.208-1.145-.625-1.586-.417-.44-1.272-1.03-2.564-1.766-1.51-.81-2.575-1.634-3.197-2.473-.623-.84-.934-1.833-.934-2.98 0-1.873.646-3.34 1.94-4.403 1.291-1.063 3.036-1.594 5.235-1.594 2.367 0 4.457.507 6.27 1.52l-1.378 3.19c-1.69-.918-3.298-1.377-4.82-1.377-.88 0-1.597.2-2.146.598-.55.399-.825.954-.825 1.667 0 .543.2 1.027.598 1.449.4.423 1.214.967 2.446 1.63 1.268.714 2.168 1.323 2.7 1.83a5.51 5.51 0 0 1 1.213 1.658c.278.598.417 1.29.417 2.075m10.837 6.521c-2.38 0-4.237-.67-5.57-2.01-1.336-1.34-2.003-3.213-2.003-5.617 0-2.391.468-4.617 1.404-6.675.936-2.06 2.204-3.651 3.805-4.775 1.6-1.123 3.39-1.685 5.372-1.685 1.944 0 3.457.438 4.538 1.313 1.081.876 1.622 2.117 1.622 3.723 0 2.2-1.006 3.917-3.017 5.156-2.01 1.237-4.877 1.857-8.597 1.857h-.779l-.036.562v.524c0 1.341.341 2.393 1.024 3.152.682.762 1.7 1.142 3.052 1.142.87 0 1.733-.115 2.591-.344.858-.23 1.872-.622 3.044-1.177v3.388c-1.16.531-2.226.908-3.198 1.131-.972.224-2.056.335-3.252.335m2.754-17.5c-1.16 0-2.25.518-3.27 1.557-1.02 1.04-1.755 2.41-2.202 4.113h.526c2.27 0 4.046-.323 5.326-.97 1.28-.645 1.921-1.56 1.921-2.744 0-.616-.194-1.097-.58-1.44-.387-.344-.96-.517-1.72-.517m21.268-3.26c2.657 0 4.191 1.418 4.602 4.257h.145c.906-1.4 1.935-2.46 3.09-3.18 1.152-.719 2.351-1.078 3.595-1.078 1.606 0 2.83.462 3.67 1.386.84.924 1.258 2.226 1.258 3.904 0 .773-.133 1.866-.398 3.28l-2.537 11.83h-4.257l2.59-12.175c.23-1.147.345-1.95.345-2.409 0-1.558-.73-2.337-2.193-2.337-1.304 0-2.52.75-3.65 2.246-1.13 1.498-1.954 3.485-2.473 5.961l-1.83 8.714H88.01l2.59-12.175c.206-.99.308-1.757.308-2.3 0-1.63-.706-2.446-2.12-2.446-1.329 0-2.557.767-3.687 2.3-1.129 1.534-1.965 3.576-2.509 6.124l-1.776 8.497h-4.275l4.275-20.038h3.334l-.38 3.714h.163c1.787-2.717 3.913-4.076 6.377-4.076m24.71 20.763c-1.702 0-3.05-.613-4.04-1.84-.99-1.225-1.485-2.95-1.485-5.171 0-2.44.419-4.723 1.259-6.85.839-2.124 1.996-3.806 3.469-5.044 1.474-1.238 3.092-1.857 4.856-1.857 1.17 0 2.18.275 3.026.824.845.55 1.503 1.35 1.974 2.4h.182l1.123-2.862h3.26l-4.275 20.038h-3.297l.38-3.19h-.108c-1.91 2.369-4.016 3.552-6.323 3.552m1.558-3.442c.99 0 1.962-.468 2.917-1.404.954-.936 1.739-2.19 2.355-3.76.616-1.57.924-3.285.924-5.145 0-1.063-.284-1.917-.852-2.564-.567-.646-1.31-.97-2.228-.97-1.027 0-1.993.466-2.9 1.396-.905.93-1.63 2.196-2.173 3.796a15.344 15.344 0 0 0-.815 4.973c0 1.232.244 2.153.734 2.763.489.61 1.168.915 2.038.915m22.549 3.442c-2.187 0-3.811-1.063-4.874-3.19h-.181a26.23 26.23 0 0 1-.453 3.353l-1.74 8.388h-4.221l6.124-28.951h3.333l-.38 3.406h.163c1.896-2.512 3.974-3.77 6.232-3.77 1.728 0 3.08.624 4.058 1.868.979 1.244 1.468 2.97 1.468 5.18 0 2.465-.422 4.769-1.268 6.913-.845 2.144-1.996 3.814-3.451 5.009-1.456 1.196-3.06 1.794-4.81 1.794m2.409-17.284c-.978 0-1.951.48-2.917 1.44-.966.96-1.754 2.232-2.364 3.814a13.538 13.538 0 0 0-.915 4.91c0 1.159.28 2.062.842 2.708.562.647 1.356.97 2.383.97 1.026 0 1.987-.474 2.88-1.423.894-.948 1.6-2.216 2.12-3.804.519-1.588.78-3.246.78-4.973 0-2.428-.937-3.642-2.81-3.642"/>
  <path fill="#777b7d" d="M172.943 15.007h20.323c1.139 0 2.247-.915 2.462-2.033L198.214.097 198.016 0l-3.633.938.263 2.805-.777 4.056h-2.685l-1.754 3.168-.756 2.291-2.443-.07-2.301-.697-2.39 1.505-2.382-.012-4.4-1.32-.846-1.868-2.04-.975-.607 3.153c-.216 1.118.539 2.033 1.678 2.033m28.54 0h20.324c1.138 0 2.247-.915 2.463-2.033l1.469-7.612-1.915 1.084-3.026-.19-3.138-.112-4.49-2.694-2.28.091-2.704-.847-2.927-1.383-2.502-.927-.555.174-2.396 12.416c-.216 1.118.539 2.033 1.678 2.033m28.54 0h5.362l-.02-.266 1.392-3.774.243-1.27-.707-3.2-2.532-.312-2.916-1.443-.856-.28-1.643 8.512c-.216 1.118.539 2.033 1.678 2.033m-67.371 21.45 3.1-16.062c.217-1.118-.538-2.033-1.677-2.033h-1.81l-.008 1-1.13 2.281-1.837 1.765-3.258.797-3.976 1.775-.9 3.632-1.231 3.148 2.05 4.035 1.075 1.695h7.139c1.139 0 2.247-.915 2.463-2.033m29.964-18.095h-20.323c-1.14 0-2.247.915-2.463 2.033l-3.1 16.062c-.216 1.118.539 2.033 1.678 2.033h20.323c1.138 0 2.247-.915 2.462-2.033l3.1-16.062c.217-1.118-.54-2.033-1.677-2.033m-21.282 14.796c-.26.24-.617.361-1.074.361-.47 0-.841-.119-1.112-.357-.271-.238-.407-.573-.407-1.006 0-.437.129-.775.389-1.013.259-.237.636-.356 1.13-.356.47 0 .833.119 1.084.356.252.238.379.576.379 1.013 0 .428-.13.762-.39 1.002m9.013.182-.514-1.954h-3.388l-.528 1.954h-3.096l3.403-10.471h3.759l3.445 10.471h-3.081Zm10.403-8.124h-2.54v8.124h-2.817v-8.124h-2.546v-2.304h7.903v2.304Zm-12.333.67a24.4 24.4 0 0 1-.296-1.297 29.09 29.09 0 0 1-.253 1.197 117.56 117.56 0 0 1-.839 3.289h2.219l-.449-1.711a62.445 62.445 0 0 1-.382-1.478m41.318 10.571 3.1-16.062c.216-1.118-.539-2.033-1.678-2.033h-20.322c-1.139 0-2.248.915-2.463 2.033l-3.101 16.062c-.216 1.118.539 2.033 1.678 2.033h20.323c1.139 0 2.247-.915 2.463-2.033m7.178-16.062-3.101 16.062c-.215 1.118.54 2.033 1.678 2.033h15.23l1.95-1.098-.605-2.29.524-2.997 1.19-3.814-1.947-2.543-3.23-2.482-1.138-3.38-1.56-1.524h-6.528c-1.14 0-2.247.915-2.463 2.033M78.962 52.293l-.142.02.585 2.905-.624 2.493-.617.847.05.041 1.02 1.856.16 1.518h19.183c1.138 0 2.247-.915 2.462-2.033l1.69-8.76-2.711.023-2.411-1.15.716 2.966-.767 2.977-2.321 2.562-2.643.243.1-2.734-2.734-.203-1.613-2.935-2.301-1.856-2.341-1.776-1.452 1.321.05.03-.241.151-2.191 1.363-.907.131Zm52.558-2.403h-4.332l-2.744.454-2.35 2.1-2.565.1-2.309 1.465-2.462.241-2.402 1.322-2.754-1.362-2.562-3.168-.209.011-1.715 8.887c-.216 1.118.54 2.033 1.678 2.033h20.323c1.138 0 2.247-.915 2.463-2.033l1.94-10.05Zm26.6 10.05 3.102-16.063c.215-1.118-.54-2.032-1.678-2.032h-5.981l-.214 2.376 2.503 1.797-.645 2.825-.96 3.107-2.421-.968-2.491-2.533-.354-2.816-2.401-.18-2.916 1.613-2.472-2.027-2.492.201h-2.205l-2.838 14.7c-.216 1.118.539 2.033 1.678 2.033h20.323c1.139 0 2.247-.915 2.463-2.033m4.077 0c-.216 1.118.54 2.033 1.678 2.033H184.2c1.14 0 2.247-.915 2.463-2.033l3.1-16.063c.216-1.118-.539-2.032-1.678-2.032h-20.323c-1.139 0-2.247.914-2.463 2.032l-3.1 16.063Zm30.22 2.033h20.322c1.14 0 2.247-.915 2.462-2.033l3.101-16.062c.216-1.118-.539-2.033-1.678-2.033h-20.323c-1.138 0-2.247.915-2.462 2.033l-3.1 16.062c-.217 1.118.538 2.033 1.677 2.033m29.964-18.095L219.28 59.94c-.216 1.118.54 2.032 1.678 2.032h10.277l.045-2.486-.505-2.774-.01-2.805-.525-2.613 3.058-3.168 1.694-2.886-.928-2.765-1.62-.631h-7.6c-1.139 0-2.247.915-2.463 2.033M97.929 65.328H79.326l-.123 1.15 1.948.032 4.46 1.876.644 2.734 3.24 1.574 2.502.454 2.441-3.924 2.643-.818 1.802 2.7.724-3.745c.216-1.12-.54-2.033-1.678-2.033m28.54 0h-20.323c-1.139 0-2.247.914-2.463 2.033l-1.05 5.444 2.3.979 2.34 1.674 2.733.142 2.35-3.058 1.816-2.986 3.472-1.05 2.915-.241 2.824-.253 2.463.172 2.157-.078.144-.745c.216-1.12-.539-2.033-1.678-2.033m28.541 0h-19.653l-.028 2.583.424 2.705 2.785.998.494 2.805 3.13 3.088 2.833.957 3.107.04 2.342.496 3.89.558 2.354-12.197c.216-1.12-.539-2.033-1.678-2.033m30.22 2.033c.215-1.118-.54-2.033-1.679-2.033h-20.323c-1.139 0-2.247.915-2.463 2.033l-2.514 13.022 2.04.716 3.631-.415 2.351-.04 4.36 1.25.685-.07 1.837.293 2.421-.252 3.218.706 2.704 1.302.484.012c.065-.15.115-.303.146-.462l3.101-16.062Zm26.862-2.033H191.77c-1.138 0-2.247.914-2.462 2.033l-3.1 16.062a1.922 1.922 0 0 0-.027.567l1.392.034 2.463 1.029 2.461-2.008 2.564-1.816 1.442-2.946 2.481-1.301 2.473-1.14 3.207.12 4.066-.513 2.785.362.733-.558 1.523-7.892c.216-1.12-.539-2.033-1.678-2.033m8.218 0c-1.139 0-2.247.914-2.463 2.033l-1.053 5.457 2.046-.69 2.612-.817.162-2.834 2.28-1.251 1.825-1.898h-5.409Z"/>
</svg>
