<svg xmlns="http://www.w3.org/2000/svg" viewBox="0 0 55.276 20.26801">
  <path fill="#231f20" d="M8.72311 6.509h.779v6.11103s-.05399 1.14798-.882 2.19097c-.78802.99302-1.317 1.15003-1.812 1.37601-.724.29901-1.774.298-1.774.298s-.795.04102-1.77999-.35c-1.12003-.445-1.82-1.418-1.82-1.418s-.702-.81598-.74302-2.03l-.00598-6.178h.779c-.00901-.015-.02802-.041-.02802-.041-.16999-.213-.31598-.45199-.396-.71398-.073-.237-.09698-.49002.02301-.716.027-.05002.061-.09601.098-.13901-.013.00201-.02702.00201-.04002.00201-.22998 0-.41699-.186-.41699-.41601 0-.15299.083-.28601.20502-.35901-.16-.05698-.276-.211-.276-.391 0-.22198.17398-.40298.392-.41598-.138-.06802-.233-.21002-.233-.37302 0-.23.18698-.41699.41699-.41699.06799 0 .133.017.19.046a.41208.41208 0 0 1-.128-.29899c0-.23.18699-.41702.417-.41702.134 0 .254.065.32999.164-.013-.03998-.02-.08298-.02-.12799 0-.23001.18702-.41602.416-.41602.18401 0 .33901.11802.39501.28302.029-.202.202-.357.41199-.357.224 0 .40701.17799.41602.4.05297-.169.211-.29199.397-.29199.223 0 .40597.17798.41598.39899.081-.156.21802-.28202.388-.34601v-.072h-.366V.98603h.366v-.366h.508v.366h.366v.508h-.366v.07101c.182.068.32602.20499.406.37598 0-.004-.001-.00699-.001-.01099 0-.23.18701-.41699.41702-.41699.18598 0 .344.12299.39697.292.009-.22202.19202-.4.41602-.4.21 0 .383.155.41199.357.056-.164.211-.28303.39502-.28303.229 0 .41598.186.41598.41602a.42434.42434 0 0 1-.01999.129c.076-.1.19599-.16501.32999-.16501.23001 0 .41702.18701.41702.41702a.41207.41207 0 0 1-.12802.29898c.057-.02899.12201-.04599.19-.04599.23001 0 .417.18698.417.417 0 .16299-.095.30499-.233.37301.21801.013.392.194.392.41599 0 .17999-.116.33401-.27598.39099.12198.073.20499.20602.20499.359 0 .23002-.18701.41602-.417.41602a.38365.38365 0 0 1-.048-.00302c.13098.14801.182.323.17801.50601-.00803.378-.24301.79099-.46103 1.064 0 0-.01797.027-.02698.04098m-3.017-3.87298c.447-.17899.918-.279 1.405-.293.01398-.00101.056-.00101.08701-.00101h.034c.75598.025 1.36099.633 1.379 1.38501v.074c-.00501.285-.04102.57001-.104.84699.07198.00201.143.01602.20998.038-.03299-.059-.052-.128-.052-.201 0-.181.11502-.33398.276-.392-.12298-.07299-.20499-.20599-.20499-.358 0-.164.095-.306.233-.37399-.21902-.013-.392-.194-.392-.415 0-.11802.04899-.224.128-.3-.05802.03-.12201.046-.19101.046-.229 0-.41599-.186-.41599-.41599a.42468.42468 0 0 1 .02-.12903c-.076.1-.196.16501-.33.16501-.21002 0-.384-.156-.41201-.358-.056.165-.212.284-.39499.284-.186 0-.344-.12299-.397-.292-.009.223-.19199.401-.41599.401-.15002 0-.281-.07998-.35501-.2.005.03301.008.066.008.09902 0 .14398-.043.27698-.115.38999m-4.018.056c-.069 0-.133-.016-.191-.046.079.076.12798.18198.12798.3 0 .221-.17297.402-.392.415.138.068.233.21.233.374 0 .152-.082.285-.20498.358.161.05801.276.211.276.392a.4157.4157 0 0 1-.04999.198c.06198-.02.12699-.03199.194-.034-.06402-.27799-.1-.56201-.104-.849-.001-.01001-.001-.06601-.001-.06601.018-.75598.62298-1.367 1.37697-1.392h.03602c.031 0 .074 0 .08898.001.487.01402.957.11301 1.40302.293-.072-.113-.11401-.246-.11401-.38998 0-.02401.001-.048.004-.07202-.076.104-.19898.173-.33698.173-.224 0-.40701-.178-.41602-.39999-.053.168-.211.29099-.397.29099-.18298 0-.33899-.119-.39499-.283-.029.201-.202.357-.41202.357-.13397 0-.254-.065-.32998-.164.013.04.01999.083.01999.12802 0 .22998-.18699.41599-.41599.41599"/>
  <path fill="#d71920" d="m2.27283 4.8681.00897.02402c.20102-.268.522-.44202.88303-.44202.36099 0 .68197.173.883.44101.22399-.23098.52498-.38699.862-.42898-.14802-.064-.25102-.211-.25102-.38202 0-.14398.073-.271.184-.34598a.41383.41383 0 0 1-.184-.345c0-.017.00101-.03302.003-.04901-.457-.281-.977-.43799-1.51801-.45401h-.09097c-.52103.017-.94.441-.953.96402v.047c.00597.33398.06399.66.173.97097m4.75009-.41778c.361 0 .68198.174.883.44201.11498-.31799.17599-.65301.18197-.99398v-.04703c-.013-.525-.431-.948-.952-.96597h-.026c-.02298 0-.05398 0-.064.00097-.557.01602-1.08999.181-1.55498.47602 0 .009.001.018.001.026 0 .14398-.073.271-.18402.346.11102.07499.18402.202.18402.34598 0 .16702-.099.31201-.242.37802.34799.03598.659.19498.88998.43299.20102-.268.522-.44101.88303-.44101"/>
  <path fill="#ffc20e" d="M2.08972 4.75992c-.082-.27799-.12701-.56598-.13101-.85898-.001-.008 0-.053 0-.053.014-.60002.49301-1.084 1.09201-1.10401h.029c.02499 0 .05798 0 .07.001.552.016 1.08398.173 1.555.455.053-.10499.14999-.184.26699-.214-.077-.014-.152-.038-.22202-.074-.52398-.266-1.08798-.41-1.677-.427-.01599-.00098-.05499-.00098-.08297-.00098h-.034c-.677.02197-1.221.57199-1.237 1.25198 0 0-.001.051 0 .061.004.292.042.581.10898.862.095.017.18402.051.26202.10099M8.3609 4.6586c.06699-.28098.10397-.56998.10797-.861.001-.01098 0-.069 0-.069-.01599-.67498-.56-1.22198-1.23898-1.24499h-.03201c-.02799 0-.06699 0-.081.001-.57498.017-1.125.153-1.63598.40601-.07901.039-.177.082-.284.09998.11499.035.20898.11902.258.22702.47698-.293 1.01998-.456 1.58499-.473.01-.001.04501-.001.07-.001h.029c.59799.02 1.07598.505 1.09 1.103 0 0 .001.013.001.01999v.00702l-.001.02798c-.004.292-.04902.58002-.13099.85901.07797-.05002.167-.08401.26099-.10101l.00201-.00101ZM5.09381 2.83139c.323 0 .585-.262.585-.585 0-.259-.17402-.48998-.42301-.56197l-.051-.01502v-.31698h.366v-.224h-.366v-.366h-.225v.366h-.366v.224h.366v.31799l-.051.01498c-.247.07203-.42001.30301-.42001.561 0 .323.262.585.58502.585"/>
  <path fill="#fff" d="M9.0365 5.1828c-.07901-.22897-.296-.39398-.551-.39398-.176 0-.341.079-.452.216l-.117.14398-.108-.151c-.181-.254-.475-.40597-.786-.40597-.305 0-.586.13998-.77.38498l-.099.13202-.116-.11902c-.24801-.25598-.58001-.397-.936-.39798h-.015c-.356.00097-.689.142-.93698.39798l-.115.11902-.1-.13202c-.18402-.245-.46402-.38498-.77002-.38498-.31097 0-.60397.15197-.78497.40597l-.108.151-.117-.14398c-.112-.137-.27702-.216-.45301-.216-.258 0-.47702.169-.55301.40298-.008.04001-.029.17801.014.294.009.02403.01801.046.026.064.02201.047.06101.082.111.09702.053.01498.122.01498.17099-.012.065-.036.091-.10601.116-.17101.022-.05799.04303-.117.06402-.175.016-.043.03098-.091.05799-.12798.02002-.02802.035-.00403.036.02298 0 0 .03501.58401-.23 1.135.03799.064.077.128.117.19001H8.5565c.04-.06201.078-.125.11502-.18802-.26502-.552-.23001-1.137-.23001-1.137.00201-.027.01599-.05099.036-.02297.02702.03698.042.08499.058.12799.02099.05798.04201.117.06399.17499.02502.065.05102.135.11603.17102.04898.02697.11798.02697.17099.01199.04998-.01501.08898-.05002.11099-.09702.009-.018.017-.03997.027-.064.046-.12798.016-.28197.012-.303m-5.865 1.086s0 .00201-.001.001v-.001c-.35101-.59-.34799-1.279-.34799-1.279.02399-.15298.121.20801.186.348.05698.125.149.12302.162.122h.001c.013.00102.104.003.16199-.122.064-.13999.16201-.50098.186-.348 0 0 .003.689-.348 1.279m1.92301-.10599s0 .001-.001.001v-.001c-.35102-.59-.348-1.27899-.348-1.27899.024-.154.121.208.18598.348.057.125.14902.123.16202.122h.001c.013.001.104.003.16199-.122.064-.14.16199-.502.186-.348 0 0 .003.689-.34799 1.279m1.923.10598s0 .00201-.001.001v-.001c-.35101-.59-.34802-1.279-.34802-1.279.02401-.15298.121.20801.186.348.057.125.14902.12302.16202.122h.001c.01298.00102.10398.003.162-.122.06399-.13999.16198-.50098.186-.348 0 0 .00299.689-.348 1.279m-1.6672-2.1885c0-.15199-.12302-.275-.27502-.275-.151 0-.275.12301-.275.275 0 .152.124.27502.275.27502.152 0 .27502-.12302.27502-.27503m-.2749-.9664c-.152 0-.27503.12302-.27503.27503 0 .151.12302.27499.27503.27499.15198 0 .275-.124.275-.275 0-.152-.12302-.27502-.275-.27502M9.0815 4.21c-.152 0-.27502.12302-.27502.27503 0 .151.12301.27499.27502.27499.15097 0 .275-.124.275-.275 0-.152-.12403-.27502-.275-.27502m.3458-.4755c0-.15197-.12302-.27499-.27503-.27499-.151 0-.275.12302-.275.275 0 .152.124.27502.275.27502.15201 0 .27503-.12301.27503-.27502m-.4339-1.0636c-.15201 0-.27503.12301-.27503.27502 0 .151.12302.275.27503.275.15097 0 .275-.124.275-.275 0-.152-.12403-.27502-.275-.27502m-.4788-.66998c-.151 0-.27502.12301-.27502.27502 0 .151.12403.275.27503.275.15198 0 .275-.124.275-.275 0-.152-.12302-.27502-.275-.27502m-.727-.38053c-.152 0-.27502.12302-.27502.27503 0 .151.12302.27499.27503.27499.15198 0 .275-.124.275-.275 0-.152-.12302-.27502-.275-.27502m-.8063-.07397c-.151 0-.27503.12301-.27503.27502 0 .151.12402.275.27502.275.15097 0 .275-.124.275-.275 0-.152-.12403-.27502-.275-.27502m-.8131.10867c-.15202 0-.27503.12302-.27503.27502 0 .151.12301.275.27502.275.15198 0 .275-.124.275-.275 0-.152-.12302-.27502-.275-.27502m-2.13418 0c-.15201 0-.27503.12302-.27503.27502 0 .151.12302.275.27503.275.15197 0 .275-.124.275-.275 0-.152-.12303-.27502-.275-.27502m-.81311-.10867c-.15201 0-.27503.12301-.27503.27502 0 .151.12302.275.27503.275.15197 0 .275-.124.275-.275 0-.152-.12303-.27502-.275-.27502m-.8063.07397c-.15202 0-.27503.12302-.27503.27503 0 .151.12301.27499.27502.27499.15198 0 .275-.124.275-.275 0-.152-.12302-.27502-.275-.27502m-.72699.38053c-.152 0-.27502.12301-.27502.27502 0 .151.12301.275.27502.275.15198 0 .275-.124.275-.275 0-.152-.12302-.27502-.275-.27502m-.7536.94479c0 .152.12299.27502.275.27502.151 0 .27499-.12301.27499-.27502 0-.15198-.124-.275-.275-.275-.152 0-.27499.12302-.27499.275M1.0498 4.0094c.15198 0 .275-.12299.275-.275 0-.151-.12302-.27499-.275-.27499-.152 0-.27502.124-.27502.275 0 .152.12302.27499.27502.27499m.07102.75021c.15198 0 .275-.12298.275-.275 0-.151-.12302-.27498-.275-.27498-.152 0-.27503.12399-.27503.27499 0 .152.12302.275.27503.275"/>
  <path fill="#d71920" d="M5.12552 6.63771h4.23199v2.86751H5.12552z"/>
  <path fill="#e6e7e8" d="M5.12601 9.62299H9.358V12.418H5.12601z"/>
  <path fill="#d71920" d="M6.33542 16.1727c.65799-.16098 1.254-.499 1.74298-.96698.458-.439.819-.98102 1.042-1.57602.122-.32797.221-.68597.237-1.03998v-.053h-4.232v3.793c.405-.015.81701-.06101 1.21002-.15702"/>
  <path fill="#ffc20e" d="M.82468 6.63623s-.00998 5.06201.006 6.12698c.01502 1.06601.85001 2.048.85001 2.048s.714.836 1.703 1.21702c.834.32098 1.44999.31698 1.623.30801v-9.699L.82467 6.63623Z"/>
  <path fill="#231f20" d="M4.6607 13.97421c.00998.04303.03199.082.03898.125.006.04001-.00199.08103-.016.11902-.01098.03-.031.057-.04498.086-.014.029-.02801.074 0 .1.017.016.04398.022.06699.01801.013-.00302.04501-.01602.04101-.03403.026.112-.043.17203-.10202.177-.05899.004-.07898-.039-.07898-.039.00599.013-.018.035-.02502.043-.025.02903-.056.05301-.072.08902-.01598.034-.01.074.025.09198.03202.01703.077.00602.103-.017.00702-.00698.02502-.02398.02402-.03497.001.00498.001.00998.00198.016.00302.05798-.008.11797-.029.17199-.018.04498-.049.086-.096.1-.052.016-.10898.00501-.155-.02001-.09299-.051-.086-.16599-.074-.257.001-.006.01101-.092.01-.091-.03198.004-.074.051-.099.072-.035.027-.069.053-.104.08102-.027.021-.056.043-.077.07098-.07998.103-.00399.24802.099.302.034.01801.034.08402.034.08402.14902.319-.18698.31497-.18698.31497.003 0 .00598-.04397.00598-.04797 0-.013 0-.026-.00198-.039-.004-.02503-.01202-.04901-.02902-.06803-.01398-.017-.033-.02398-.052-.03299-.01899-.008-.03199-.021-.03-.043.00201-.018.01501-.03298.019-.04998.00501-.018.00501-.03702-.002-.05503-.01499-.03497-.056-.02697-.08698-.02697-.02902 0-.05502.069.022.11398.04099.02301.046.10101.02799.14401-.01001.025-.013.04999-.01901.076-.007.024-.01499.04699-.02597.069-.02701.052-.07303.093-.13303.1-.151.01599-.15698-.051-.15698-.051.117-.00299.099-.15701.099-.15701-.00101-.001-.01001-.004-.01102-.004-.017-.009-.02698-.025-.03198-.043a.15156.15156 0 0 1-.003-.06c.00498-.02798.012-.057.02698-.082.01902-.031.047-.057.05902-.09298.004-.01102.007-.022.008-.034 0-.00302 0-.022-.005-.022-.158-.01502-.12601.117-.141.215-.014.09799-.09402.06698-.09402.06698-.073.051.027.177.027.177-.286.02701-.204-.344-.204-.344-.007-.02099-.00598-.044.013-.058.009-.007.01901-.011.02902-.01398.016-.004.03198-.01001.048-.01602.01798-.008.034-.02.04898-.03199.01502-.01101.03-.02401.035-.043.01002-.03701-.01498-.05801-.04998-.05801-.00201.001-.004.001-.00601.001-.03201.00202-.057.01801-.069.047-.012.02802-.02301.061-.052.074-.017.008-.038.008-.056.00501-.02-.004-.037-.014-.05701-.017-.01398-.001-.029.00101-.042.00599-.027.009-.04998.02801-.069.049-.00698.008-.014.016-.01998.024-.001.001-.00702.009-.00702.01-.02298-.05798-.06097-.11499-.043-.23999.021-.146.225-.13601.225-.13601 0-.034.07001-.056.11301-.052s.074.049.074.049.077.016.11701-.045c.09-.14.158-.153.158-.153s.078-.023.091-.06698c.03698-.12802.01498-.11001.065-.26602.02398-.074.065-.13998.11099-.203.04102-.05799.128-.129.10599-.211-.007-.02698-.02799-.048-.04798-.06699-.03402-.034-.06701-.06701-.092-.108-.02402-.04-.04102-.08401-.059-.126-.01-.025-.023-.065-.02502-.09-.016.04901-.02298.099-.02399.15-.001.065-.004.148.04001.20199.029.036.09598.04501.129.01-.001.016-.005.03501-.01001.05a.15812.15812 0 0 1-.02799.053c-.02401.029-.061.047-.09802.046-.034-.00098-.06698-.01398-.087-.042-.017-.02398-.02298-.05398-.02597-.083-.00501-.04398-.00403-.09-.00501-.13498-.00201-.04603-.00302-.09202-.004-.138 0-.02402 0-.04902-.001-.073 0-.008-.00501-.06 0-.06302-.026.02002-.01502.29101-.035.371-.01002.043-.037.083-.07502.10602-.081.04999-.18298-.00702-.21799-.08502-.026-.05799-.025-.124.007-.17798.011-.018.023-.03302.03799-.047.00402-.004.01602-.01102.019-.01602-.04198.087-.009.142.056.142s.09101-.089.09202-.12198c0-.12302-.043-.24701-.095-.35703-.03702-.077-.074-.15799-.078-.245-.00501-.087.018-.17498.03698-.25997.008-.039.017-.07703.027-.11502.024-.09598.05302-.189.086-.28198.03202-.08701.073-.17002.11701-.25101.007-.014.042-.068.00199-.06299-.003.00098-.004.004-.00599.00598-.05801.091-.11499.181-.182.266-.034.04302-.07501.075-.12201.105-.076.048-.16498.06601-.25199.086-.074.017-.151.025-.19601.09702-.03299.05398-.04098.12198-.04098.18399 0 .09698.048.208.15399.20898.10601.00202.207-.05398.208-.04797.017.06198-.053.24197-.13699.228.00198 0 .13199.022.13999.129.01101.13598-.05799.19198-.095.246-.037.05398-.013.147.045.16998.05701.023.099-.042.099-.042.051.207-.117.128-.169.20002-.053.07098-.009.185.07501.185.08298 0 .072-.078.072-.078.10699.16598-.02402.332-.18201.30798-.15699-.02298-.237-.163-.267-.29398-.029-.13.008-.328.008-.328-.155.034-.11.30899-.111.306-.038-.07602-.079-.21802-.079-.21802-.029-.01898-.06199.055-.08299.064-.02102.01.047.113.06699.12701.021.014-.003.03601-.003.03601.08.30698-.18499.293-.18499.293.121-.169-.09701-.203-.09701-.203.018.03698.027.18698.027.18698.017.24902-.311.233-.311.233.005 0 .01999-.02798.02301-.03198.00598-.01102.012-.022.017-.03302.009-.02.01498-.03998.01898-.06198.005-.02903.004-.05902-.00198-.08902-.00202-.009-.004-.01899-.009-.02698-.007-.014-.01801-.026-.02-.04202-.00302-.01499.00498-.029.01398-.042.017-.02499.04202-.043.05902-.06698a.11875.11875 0 0 0 .02-.05402c.001-.025 0-.061-.02201-.078-.01001-.009-.02399-.012-.03699-.013-.02801-.00199-.061.00702-.079.02902-.026.03299-.003.09699-.00501.14398-.00101.048-.01899.051-.02399.05402-.12302.082-.163.26099-.163.26099-.26202-.253-.04702-.50199-.04702-.50199-.03998-.125.207-.07702.207-.07702s-.072-.11799-.223-.154-.11099.16501-.11099.16501c-.116-.008-.09399-.249-.09399-.249.025-.196.21198-.16701.21-.16701-.00102 0 .00698-.012.00799-.013.004-.004.009-.008.014-.011.01001-.006.021-.009.033-.011.036-.004.06799.011.091.039.02402.03.04.066.053.10201.025.06699.094.065.106.061.013-.00399.066-.02502.113-.11901.031-.06198.07102-.12.11899-.169.02502-.026.05102-.04899.08002-.06998.027-.01902.061-.031.08398-.05402.04501-.042.00302-.07999-.03699-.103-.05499-.03299-.118-.092-.186-.08499-.065.007-.129.01401-.193.02298-.02899.00403-.14501.00403-.159.03601.017-.038.046-.078.06999-.113.02002-.029.04702-.055.05801-.089.00201-.00399.01-.06698.00299-.06399a.08634.08634 0 0 0-.00998.009c-.039.05-.241.03998-.272.09-.04901.078.069.227.069.227-.44702-.124-.09302-.46201-.09302-.46201-.16598-.37598.08801-.335.08801-.335-.049-.005-.12799.111-.03299.14801.064.026.098-.047.11298-.09701.048-.16199.191-.23398.33002-.30698.083-.04303.168-.08001.254-.11401.17098-.069.346-.125.521-.18.134-.04202.341-.157.27798-.328-.04099-.11401-.17399-.15399-.261-.225-.05797-.047-.109-.10501-.13299-.177 0 0-.06799.02401-.06701.116.00201.092.108.05499.10702.058-.01602.064-.05902.11-.13302.115-.073.005-.129-.086-.129-.086-.01898.00699-.033.039-.04099.056-.018.04199-.02401.1-.01101.14401.01501.051.06002.08798.11502.07397.01199-.00299.04098-.00997.04498-.02398-.017.05801-.107.07599-.15698.064-.09601-.02302-.129-.121-.13202-.21299 0-.02402.00201-.048.00802-.07101.00199-.007.00998-.05.02-.04901-.17902.004-.076.15402-.076.15402-.08902-.03601-.066-.13602-.06002-.16702.006-.03.009-.03199-.029-.033s-.04898.065-.07598.14301c-.02802.077-.12702.146-.16202.15698-.017.00602-.03497.013-.043.031-.004.01103-.00498.02802.00302.038.016.02103.04898.01401.07098.01703.022.003.03702.016.04401.03598.001.00101.00201.01001.003.01001.192.069.07699.423.07699.423 0-.02401-.00898-.04601-.02399-.06399-.01999-.02402-.047-.04101-.07599-.05502-.02801-.013-.057-.02399-.08801-.03-.03699-.008-.052-.051-.055-.08399-.002-.018.00199-.034.00501-.052.003-.02401-.031-.02401-.047-.02401-.001 0 .00599.001.00498.001-.026 0-.039.00702-.04398.03702-.004.029.017.04898.033.07098.02798.04102.03698.09302.009.137a.16146.16146 0 0 1-.02.02402c-.00402.00299-.015.009-.015.013-.01402.255-.35401.13998-.35401.13998.05499-.025.10101-.065.13199-.117.02102-.03498.031-.04899.036-.089.00101-.00799-.018-.018-.023-.023-.046-.04798-.01398-.124.032-.159.01502-.012.038-.01999.04102-.042.003-.027-.01702-.05898-.04702-.05499-.012.00199-.02399.007-.03498.013-.02401.01401-.043.03599-.057.06-.03202.05301-.048.12-.04602.182.00402.102-.07499.116-.07499.116-.103.086.01001.29401.01001.29401-.181 0-.27801-.15902-.29202-.24102-.013-.08298.04202-.24.04202-.24-.01202-.08099.107-.112.14399-.13198.03701-.01902.092-.12601.096-.14002.00501-.018 0-.035-.021-.03699-.023-.00302-.037.01499-.057.022a.1193.1193 0 0 1-.03699.00599c-.01702 0-.03302-.003-.04702-.013a.08184.08184 0 0 1-.013-.013c-.00098-.00199-.004-.00998-.00498-.00998-.13-.04202-.27102.108-.27102.108-.102-.199.16-.35202.16-.35202.00302-.017.01-.034.023-.04599.01502-.013.03501-.018.05403-.021.01998-.00201.03997-.004.05899-.00201.03.004.05899.01602.082.034.026.019.04098.04501.052.075.008.02302.012.042.031.059.017.01501.03898.025.06098.02402.04202-.00101.095-.04203.11001-.05802.01499-.01599.12201-.193.13999-.224.04101-.06698.05801-.14898.08902-.22198.047-.11002.10498-.21402.181-.306.06598-.07901.13-.151.168-.24802.01599-.04098.039-.09799.01999-.14099-.04401-.104-.176-.026-.24.01099-.047.02801-.13201.079-.129.14401.00599.12.22001.026.22001.026-.004.04001-.04901.074-.082.09201-.03702.021-.07901.03098-.121.03098-.048 0-.155-.033-.164-.16898-.008-.135.142-.26901.142-.26901-.05802-.01099-.129.00699-.184.02399-.04702.01501-.09802.03701-.134.073-.065.066-.022.152.034.207a.3941.3941 0 0 0 .04498.036c.00601.003.034.02402.04102.02302-.05402.01498-.11301.022-.168.00299-.13602-.047-.242-.19501-.23401-.341.012-.214.229-.26002.40399-.278.10101-.01.19601-.043.27002-.11599.03198-.031.05899-.06802.078-.108.00998-.021.01499-.03601.016-.05801.001-.011-.004-.042.009-.04902-.07502.03702-.13202.10901-.197.16-.057.04502-.125.082-.2.07902-.093-.005-.181-.056-.232-.133-.04901-.073-.038-.17099.00299-.245.01999-.035.04599-.069.073-.099.01-.011.043-.031.048-.045-.047.126.034.242.034.242s.064.109.22601.04999c.15-.056.16098-.142.16098-.142s.03201-.06598-.086-.06598c-.11899 0-.094.12598-.094.12598-.00298-.012-.03-.03098-.03799-.03998-.01101-.013-.021-.026-.03-.04001-.019-.031-.034-.06601-.032-.104.00399-.064.03399-.121.022-.186-.008-.043-.03199-.099-.086-.08-.02399.008-.03601.03-.042.05399-.00299.01501-.01101.08902.005.09802-.04699-.02801-.082-.074-.097-.12701-.03-.10102.02499-.197.086-.27399.043-.05502.105-.09701.117-.17001.01199-.081-.03601-.188-.129-.19101-.04999-.00199-.05798.027-.074.109-.01499.082-.094.11802-.12699.11301-.06201-.01-.07-.019-.12-.051-.10302-.066-.074-.179-.074-.179.018.031.077.03701.117.02898.03998-.008.05-.02398.063-.08697.022-.09802-.00101-.19101-.00101-.19101-.01001.04599-.08.1-.128.107-.01101.002-.096.02401-.203-.07499-.10599-.1-.036-.23202-.036-.23202.02901.104.28799.082.31801.03302.038-.065-.06802-.15802-.08502-.169-.01599-.01103-.10098-.072-.12298-.09702-.022-.025.00598-.037.00598-.037s.02402-.006-.016-.05898c-.065-.086-.19598-.113-.19598-.113s.07798-.13102.22898-.13001c.151.00201.204.11099.204.11099s.01002-.021.04502 0 .02399.05902.013.1c-.01102.038-.005.06702-.00302.08402.01102.09998.109.12198.126.11798.01801-.004.04902-.038.039-.086-.009-.047-.05498-.06198-.061-.06698-.005-.00602-.025-.022-.02298-.06.00098-.039.033-.05301.03998-.06403.00601-.01098.02301-.02697.026-.12799.004-.10199-.06299-.17898-.06299-.17898.035-.013.069-.02002.149.022.11501.06.17199.197.17199.197.05102.00698.13702.07299.105.152-.03298.07999-.062.086-.134.13098-.07198.04501-.074.09802-.073.169.00102.07102.099.14701.099.14701s.211.26.25101.31201c.039.05197.177.289.20801.366.029.073.176.245.19199.26898.00699-.01498.064-.07498.199-.13498.052-.023.22599-.05801.245-.05902.01901-.00198.108-.04999.13101-.08899.02298-.039.012-.069.005-.095-.00701-.025-.04101-.047-.07202-.04501-.031.00302-.07898.027-.13098.01101-.052-.017-.08502-.078-.09402-.165s.07602-.102.07602-.102c.014.04499.091.06199.091.06199.00098-.02.055-.03598.055-.03598-.00101.017.044.065.061.087.017.02197.163-.018.05798-.08801-.10498-.07102-.18399-.085-.288-.091-.07998-.004-.09698.01998-.27398.03698-.178.018-.323-.08499-.323-.08499s-.13202-.09299-.125-.234c.008-.141.253-.188.253-.188-.021.06702.00799.193.083.25.07498.05802.23798.048.23798.048s.099-.01198.25802.004c.164.017.21198.15302.21198.15302s-.008.03.00201-.00403c.01099-.03598.134-.107.134-.10898.00101-.00302.04401-.026.05301-.058.024-.08201-.00402-.128-.06802-.13001-.091-.004-.07898.173-.07898.173-.014-.034-.083-.15-.152-.15-.07001 0-.08802.08402-.08802.08402-.00699-.00702-.022-.027-.055-.05801s-.05999-.031-.091-.02301-.039.05902-.039.05902c-.13-.125-.13498-.15302-.15698-.211-.022-.05902.085-.164.085-.164-.069-.00702-.14002.073-.14002.073s-.03998-.035.005-.11502c.086-.154.255-.129.255-.129-.01498.06701.04102.09701.10102.09701.06.00101.085-.01599.09-.021.005-.004.066-.02401.064-.018-.013.044.00298.034-.01402.056-.038.04999.022.04498.022.04498s.06101.02701.07502-.00897c.021-.05002-.01502-.069-.027-.08502-.012-.01498.00298-.029.01198-.02698.008.00199.02301.00199.029.03.005.029.06002.10898.06002.10898-.01702.013-.088.02801-.15002.02402-.038-.00202-.164-.06201-.164-.06201s-.11798-.01401-.033.07c.09501.094.103.07999.103.07999-.017-.03998-.052-.085-.052-.085.19202.085.396 0 .396 0-.052-.056-.094-.11098-.094-.11098s-.005-.05701-.06799-.081c-.08899-.03302-.169.017-.169.017s-.082.03497-.11301-.00601c-.03098-.042-.02298-.12702.05502-.177.07798-.05.26099-.042.27799-.042.021-.001.15701-.008.26599.05799.066.039.14502.08001.22302.08401.02298.00199.04898-.001.06598-.017.00702.042-.025.09601-.043.133-.01398.03201-.029.06299-.04098.09698-.00602.01703-.03.07502-.00602.086.008.00403.018 0 .02402-.00598.009-.01.01398-.027.017-.04.00998-.05302.01898-.108.04398-.15699a.2135.2135 0 0 1 .05001-.06201c.02-.018.029-.047.035-.073.00901-.039.00599-.07501.02702-.11002.00598-.01199.01397-.02298.02398-.03198.001-.001.01099-.00702.01099-.008-.008.089.061.172.074.25999.017.117-.00299.211-.031.324-.029.11502-.034.25601-.034.375.001.061.01001.125.044.176.03.045.095.099.15.069.00702-.004.03601-.025.03601-.034 0 .099.01401.232-.12301.229-.11298-.00198-.16498-.066-.16498-.066-.017.157.155.14202.155.14202s-.06702.10398-.074.11399c-.016.027-.034.05899-.02601.092.013.051.08899.08.117.02299.037-.07398.141-.059.141-.059-.03 0-.059.132-.068.154-.021.049-.047.10602-.096.133-.03.01702-.064.015-.095.002-.004-.002-.03998-.018-.039-.023-.047.29501.17.251.143.26101-.031.01099-.042.10999-.048.137-.012.053-.02.108-.026.16198-.008.078.02001.18003-.04899.23801-.03702.031-.086.057-.066.11502.019.05197.065.07898.07299.138.004.03598-.001.073-.00601.10898-.008.068-.007.134.027.19601.004.00599.05302.063.05302.064-.013.044-.07102.03-.07102.03-.13599-.04102.057.28299.078.31699.021.035.137.29202.14902.367.01099.07501.13098.384.19598.50302.064.11899.11402.137.11402.137s.043.02899.08798.005c.04501-.02402.03803-.08902.03803-.08902-.00303-.09.01498-.12698-.02903-.285-.044-.158-.17398-.322-.207-.392-.03198-.06998-.23498-.46799-.259-.51898-.022-.04502-.055-.19-.04999-.35602.001-.012.00199-.02399.004-.03598a.65137.65137 0 0 1-.008.01999c0-.421.271-1.074.341-1.27701.069-.20398.012-.34.012-.34-.00699-.017-.04-.03598-.053-.052-.01899-.022-.03599-.047-.04899-.073-.02502-.051-.03802-.111-.02002-.167.014-.041.03702-.08599.018-.13-.01199-.026-.04699-.02798-.073-.02798-.10299 0-.126.103-.126.103-.02398-.311.27402-.233.27402-.233s-.10101-.04902-.12701-.28702c-.026-.237.217-.319.217-.319s-.02401.053-.028.17502c-.00501.12197.052.16.101.22998.04902.069.033.156.033.156.14999-.10199.03399-.35599.03399-.35599.05502.03199.09802.082.11902.142.02399.065.025.13599.01398.20401-.003.02198-.008.04398-.01398.06598-.013.047.00198.08801.017.133.01199.036.01898.073.01999.11001.004.08799-.021.175-.063.25199-.014.027-.03.052-.04699.07602-.004.005-.021.01998-.022.02697-.004.03601.00299.38303-.103.58503-.087.16598-.09302.38598-.09201.46298.06-.03098.12299-.04999.181-.047.077.00201.225.026.22601.30402 0 .302-.185.31598-.185.31598.06498-.37299-.21902-.21598-.21902-.21598.13202.01798.129.29999.104.28199-.02499-.01902-.077-.068-.116-.068s-.08797 0-.091.11899c-.00198.091.10001.25201.10001.25201 0-.013.038-.07101.051-.09301.021-.033.075-.04898.114-.04798.037.00199.10001.029.127.05698.028.02801.062.08902.071.189.009.1-.03701.114-.03701.114s.014-.041-.00598-.062c-.01902-.021-.03601-.029-.074-.00598-.038.02297-.04002.082-.04002.121s.04401.15597.074.25699c.03.10199.08402.36898.093.43798.013.091.023.18201.02401.27402.00199.117-.004.353-.172.35501-.078 0-.144-.05801-.20599-.09903-.004-.00299-.01901-.00897-.02102-.01397.00701.01599.019.16699.022.21798.004.051-.013.22202-.05399.345-.04.12302-.088.227-.053.469.002.014.004.027.00701.04.021.095.068.19501.15299.248.049.031.1.03402.15701.032.03198-.001.06299-.005.094-.01.009-.00199.08798-.016.08798-.024-.003.085-.034.167-.07398.241-.01202.022-.027.04102-.04101.06101s-.017.03299-.01898.057c-.00303.04801.00198.09599.013.14298"/>
  <path fill="#d71920" d="M3.14758 14.91092s.01902.12698.004.18597c0 0-.14899-.034-.164.03702 0 0-.068-.167.077-.20999l.083-.013Zm.20401.461s-.022-.11502-.08001-.10303c0 0-.089.21103.086.29901 0 0-.08298-.113-.021-.156.021-.016.01501-.03998.01501-.03998m.281.10498.00599.04c.012.052-.04599.12601-.04599.12601.129.00599.151-.176.151-.176-.04901-.02502-.111.00999-.111.00999m.377.00302s.179-.08402.04-.23502c0 0-.13602.01502-.124.07102 0 0 .09599.03097.08.11697l.004.04703Zm-2.262-8.01502-.009-.036c-.031-.09199-.16599-.137-.16599-.137.029.04102.026.20902.026.20902.04999.009.14899-.03602.14899-.03602m-.43.08301s-.062.085-.13299.104c0 0-.07602-.13-.173-.13201 0 0 .095-.117.272-.008l.034.03601Zm.00599.637s-.19898.18399-.30399-.12601c0 0 .115.07199.28.02002 0 0 .039.051.02399.10599m.05401.286c0-.015.06.012.107.071 0 0-.095.144-.236-.03501 0 0 .129-.00101.129-.03598m1.71-.20102-.017.023c-.09201-.075-.253-.08898-.281-.092-.06501-.005-.128.022-.22001.026-.09198.005-.13498.01-.25598-.033-.121-.04198-.14002-.06399-.17001-.178-.03101-.11398.116-.139.116-.139-.003.031.00701.08102.00701.08102.01898.13699.24399.16497.296.16998s.17199-.00699.31698.005c.14502.01099.208.137.208.137m-1.85998 3.142s.06598.006.085.13601c0 0-.17902.00998-.22602.08298 0 0-.03-.09598.11001-.20499l.03101-.014Zm.078.54602s.14899.02298.163.116c0 0-.133.07198-.04502.24899 0 0-.208-.043-.13198-.31702l.014-.04797Zm.452.05499s.09.014.10599.061c0 0-.04001.163-.198.133 0 0 .08401-.094.082-.15l.01-.044Zm.31698-.09702c-.031.00302-.035-.03698-.03198-.05899.004-.048.03098-.09298.06998-.121.03702.01901.06302.057.074.09702.012.04098.01102.08297.009.125-.032-.02402-.078-.04602-.11898-.043m-.35202 1.79599s-.15598-.05-.14798.13998c0 0-.00601-.01498-.018-.04498-.00703-.02-.051-.237.10598-.258 0 0 .025-.00302.03302-.00201.00699 0 .06.06.02698.165m.05002.319s.12799.064.13498.168c0 0-.10398.065-.14399.215 0 0-.143-.15399-.014-.35998l.023-.02301Zm.319.25602s.03-.014.08499-.014c.056 0 .087.03298.087.03298.00101.189-.199.203-.199.203.07-.112.027-.22198.027-.22198m.41901-.22403s.094.18503-.082.233c0 0 .069-.11297-.05401-.16998 0 0 .01101-.05802.057-.07.046-.011.07901.00698.07901.00698"/>
  <path fill="#231f20" d="m19.526 1.98242-2.21597 6.284h.82797l.60602-1.76001h2.359l.606 1.76h.879L20.371 1.98243h-.845Zm1.31403 3.76898h-1.832l.92398-2.66998.90802 2.66998Zm6.483-3.74398h.805v6.259h-.745l-.017-.02503-3.25702-4.858v4.88303h-.805v-6.259h.861l3.15802 4.74899v-4.749ZM16.901 8.26642h-3.46997v-6.259h.84598V7.4874h2.624v.77902Zm.67001 5.95898c0 1.04102-.92498 1.768-2.25 1.768-1.147 0-2.03698-.614-2.379-1.64199l-.017-.04999.718-.32.022.05798c.29501.79.86401 1.191 1.689 1.191.864 0 1.379-.35699 1.379-.95498 0-.58801-.33698-.86502-1.504-1.23202-1.219-.37198-2.08298-.724-2.08298-1.857 0-.97699.85598-1.685 2.034-1.685 1.06298 0 1.85198.50202 2.22097 1.414l.01901.047-.681.379-.026-.057c-.307-.685-.797-1.004-1.54098-1.004-.72202 0-1.18802.333-1.18802.84802 0 .60599.35602.81097 1.579 1.198 1.271.393 2.008.82998 2.008 1.89898m2.617-4.633-2.216 6.28501h.828l.607-1.76102h2.358l.606 1.76102H23.25l-2.21597-6.285h-.84601Zm1.314 3.77h-1.83099l.923-2.66999.908 2.66999Zm21.23902-3.745h.83795v4.06c0 1.423-.89398 2.30801-2.33197 2.30801-1.466 0-2.34198-.857-2.34198-2.29199V9.6174h.84595v3.97702c0 1.04398.534 1.61899 1.50402 1.61899 1.229 0 1.48603-.871 1.48603-1.603v-3.993ZM36.82 12.6354c.63098-.20498.98797-.71499.98797-1.424 0-1.02799-.76696-1.594-2.15796-1.594h-2.258v6.26001h2.43195c1.367 0 2.18305-.64902 2.18305-1.73501 0-.771-.419-1.29899-1.18701-1.507m-1.04602 2.487H34.884v.004h-.65399v-.004h-.001v-2.07699h.001v-.746h-.001v-1.919h1.37097c.966 0 1.37805.28301 1.37805.94698 0 .64502-.46906.97202-1.39502.97202h-.699v.746h.74099c1.02502 0 1.544.35199 1.544 1.047 0 .69299-.45599 1.03-1.39501 1.03m13.34301.755h-.929l-1.46997-2.64902H46.076v-.763h.635c1.02601 0 1.44502-.30298 1.44502-1.047 0-.716-.435-1.02099-1.45398-1.02099h-1.27906v.004H45.422v5.47601h-.83698v-6.26h2.167c1.445 0 2.24096.631 2.24096 1.776 0 .92599-.46997 1.50701-1.398 1.726l1.52202 2.758Zm-21.67999 0h-3.454v-6.26h.846v5.48h2.608v.78Zm4.988-5.637-3.46499 4.858h3.473v.05699h.002v.72201H27.828v-.591l3.504-4.888h-3.26999v-.051h-.00198v-.73h4.375v.608l-.01001.015Zm22.114 2.22599v1.099h-.00404c-.039 1.784-1.13696 2.41702-2.27795 2.423-.43402.00202-.82501-.083-1.16803-.24798v.00998c-.94696-.456-1.50098-1.53098-1.50098-3.02799 0-1.927 1.07501-3.221 2.67401-3.221 1.065 0 1.79798.49801 2.18299 1.48101l-.81201.20697c-.28602-.63998-.70002-.9-1.38-.9-.875 0-1.81.633-1.81 2.40803 0 .89798.22302 1.58697.625 2.01797.323.315.742.44803 1.187.44803.85499 0 1.55903-.39203 1.55903-1.79602l.00097.001v-.138h-1.331v-.764h2.055ZM30.95202 2.00742h-1.677v6.259h1.677c2.064 0 3.155-1.08801 3.155-3.14603 0-2.03699-1.091-3.11297-3.155-3.11297m.091 5.48797H30.121V2.7944h.905c1.50403 0 2.23502.76102 2.23502 2.326 0 1.62002-.70502 2.375-2.21799 2.375"/>
  <path fill="#d71920" d="M13.431 18.271h19.00201v1.63501H13.431z"/>
</svg>
