<svg xmlns="http://www.w3.org/2000/svg" viewBox="0 0 30000 11115"><defs><path id="l" d="M3105.87 10899.68H-.13l1346-9583.22c108.81-758.46 464.34-1098.9 1222.8-1098.9h1115.1c426.66 0 661.53 155.2 846.84 419.15l2747.662 5430.866L8110.28 217.57h3084.375L9846.95 9800.72c-108.81 758.46-464.34 1098.9-1222.8 1098.9h-1115.1c-697.05 0-898.52-402.93-1192.6-1037.5L3925.602 5066.012 3105.87 10899.68Zm16948.01-8206.29c-1183.507-21.376-2956.86-31.434-3745.97-30.166-712.14 0-975.01 92.653-1052.6 433.1-46.326 232.71 61.41 402.93 680.89 697.05l1796 851.11c422.33 200.39 763.85 405.09 1037.5 621.64 360.294 295.265 914.234 993.933 947.974 1938.201 6.464 238.1-6.116 546.166-54.945 921.15-307.05 2336.8-1424.3 2989.7-4440.9 2989.7-999.29 0-2623.37-145.44-4165.07-541.91l309.2-2337.9 2439.1 58.177c608.71 12.928 1052.6 19.392 1389.79 19.392 830.64-14.006 1098.9-141.13 1172.2-449.26 46.326-197.16-20.47-316.74-239.17-454.65s-328.824-191.044-435.414-241.558l-1796-851.11c-422.33-200.39-763.85-405.09-1037.5-621.64s-492.796-565.71-636.365-817.522c-313.51-560.23-360.92-1178.6-281.19-1858.4C12219.37 665.794 13612.41 0 16523.4 0c1192.6 0 2632 155.13 3824.6 556.99ZM24221.8 155.13c2243.07 0 4014.27 36.63 5296.27 232.71l-371.69 2337.9h-3560.7c-557 0-774.62 155.14-836.03 619.48l-1055.42 7554.47h-3375.4l1180.43-8374.371c201.47-1470.6 1269.1-2369.1 2722.538-2370.189Z"/><path id="s" d="m20515.416 3389.31 57.739 38.842 26.934 22.625c214.39 205.78 426.63 413.71 642.11 618.4 370.61 351.22 744.46 700.28 1116.1 1049.3 85.112 79.725 187.46 121.74 303.82 120.66 427.71-4.31 854.35-9.696 1282.1-15.083l2189.2-30.166c547.3-7.542 1094.6-20.47 1641.9-20.47 183.15 0 361.99 43.094 516.06 146.52l103.43 75.415c117.43 81.879 243.48 142.21 379.23 190.69 77.57 28.011 154.06 56.023 230.56 85.111l469.73 182.07 108.81 50.636 102.35 50.636c92.653 47.404 184.23 95.885 212.24 118.51 143.29 114.2 134.67 299.51-18.315 399.7-66.796 44.172-149.75 63.564-225.17 93.73l-64.642 21.547c-87.266 29.089-130.36 40.94-130.36 37.708l-201.47 52.791c-33.398 8.619-67.874 16.16-101.27 22.625l-211.16 37.708c-86.189 15.083-175.61 29.089-230.56 37.708l-774.62 104.5-242.41 28.011c-217.63 21.547-437.41 28.011-655.04 42.017-132.52 8.619-265.03 18.315-397.55 32.321l-96.962 11.851-193.92 26.934c-64.642 8.619-129.28 15.083-195 18.315-794.01 32.321-1589.1 47.404-2383.1 90.498-307.05 16.16-611.94 63.564-916.83 107.74l-510.67 70.028-326.44 47.404-380.31 56.023-53.868 9.696-213.32 39.862-547.3 19.392c-130.36 0-259.64 3.232-390-2.154-38.785-1.078-93.73-17.239-109.89-44.173-28.011-48.48 7.541-90.497 52.791-121.74l207.93-150.83 211.16-155.14 33.398-34.476s9.696-90.497 25.857-285.5 55.117-696.569-14.737-861.84c-74.338-173.46-484.81-934.07-1232.5-2279.7l-4.31-124.97Z"/><path id="t" d="M29000 6007.78v495.89l-529000 11920.25V-5826.712z"/><mask id="n"><use fill="#fff" href="#t"/></mask><mask id="m"><path fill="#fff" d="M-1000-1000h31000v13000H-1000z"/><use stroke="#000" stroke-linejoin="round" stroke-width="1367" clip-path="polygon(-12% -32%, 108% 44%, 108% 98%, 1% 120%,1.2% 70%)" href="#s"/><use filter="brightness(0)" href="#t" transform="matrix(.990653 -.00144247 0 2.69035 -4680 -10542)"/></mask><linearGradient id="grad"><stop offset="15%" stop-opacity="0"/><stop offset="95%"/></linearGradient><style>@keyframes flyby{0%{transform:translateX(-90000px)}to{transform:translateX(500000px)}}@keyframes scroll{0%{stroke-dashoffset:0}to{stroke-dashoffset:1000}}svg{--nsf:#1f5aa7}.nsf{fill:var(--nsf)}stop{stop-color:var(--nsf)}#s,#t{animation:flyby 5s infinite cubic-bezier(0,.41,.4,-.3)}</style></defs><use class="nsf" href="#l" mask="url(#m)"/><use fill="url(#grad)" href="#t"/><use class="nsf" href="#l" mask="url(#n)"/><use class="nsf" href="#s"/></svg>