<svg xmlns="http://www.w3.org/2000/svg" viewBox="0 0 166.062 137.555"><defs><path id="N" d="M1.11-5.938v4.875c0 .532-.079.704-.579.72-.11 0-.281 0-.281.171C.25 0 .406 0 .594 0H2.14c.171 0 .328 0 .328-.172s-.172-.172-.313-.172c-.547-.015-.625-.219-.625-.75v-4.562L5.844.047c.093.11.14.14.203.14.172 0 .172-.156.172-.328v-5.625c0-.562.093-.703.547-.718.062 0 .234 0 .234-.172s-.156-.172-.328-.172H5.219c-.188 0-.344 0-.344.172s.172.172.281.172c.563.015.64.218.64.75v3.109l-3-4.063c-.108-.14-.14-.14-.358-.14H.702c-.187 0-.328 0-.328.172 0 .156.14.172.203.172a.895.895 0 0 1 .563.312c-.032.078-.032.094-.032.234ZM5.874-.516 1.531-6.234c-.093-.125-.093-.141-.203-.25h1.188l3.359 4.546Z"/><path id="Z" d="M5.938-6.469c.093-.125.093-.156.093-.187 0-.172-.156-.172-.328-.172H1.141c-.329 0-.329.031-.36.281l-.14 1.36-.016.125c0 .14.11.187.172.187.094 0 .156-.063.172-.156.031-.235.125-.672.734-1.047.563-.375 1.266-.406 1.61-.406h.796L.375-.36c-.094.125-.094.156-.094.187C.281 0 .437 0 .625 0h5.11c.296 0 .296-.016.343-.281l.266-1.969a.173.173 0 0 0-.172-.172c-.156 0-.172.094-.203.297-.172.813-.938 1.781-2.36 1.781H2.188Zm-4.813-.015h.531v.015c-.265.157-.453.328-.578.438Zm3.406 0h1.016L1.78-.344H.766ZM5.047-.36c.281-.157.547-.375.781-.657a24.32 24.32 0 0 0-.094.672h-.687Z"/><path id="Q" d="M4.766.094c1.406-.297 2.656-1.407 2.656-3.5 0-2.516-1.766-3.61-3.547-3.61-1.828 0-3.547 1.141-3.547 3.594 0 2.14 1.281 3.156 2.453 3.469A2.886 2.886 0 0 0 5.453 1.78c.5 0 1.047-.093 1.563-.297.187-.062.28-.109.28-.234a.173.173 0 0 0-.171-.172c-.016 0-.031 0-.094.016-.281.078-.39.078-.547.078A1.867 1.867 0 0 1 4.766.094ZM2.5-6.391c-.61.704-.766 1.875-.766 2.97 0 .983.125 2.218.782 3C1.828-.672.672-1.47.672-3.407c0-2.031 1.234-2.781 1.828-3Zm2.766-.015c.671.25 1.812 1.047 1.812 2.984 0 2.031-1.234 2.781-1.828 3 .61-.719.766-1.89.766-2.984 0-.985-.11-2.219-.766-2.985ZM3.875-.156c-1.61 0-1.797-2.11-1.797-3.25 0-1.203.203-3.266 1.797-3.266 1.625 0 1.797 2.11 1.797 3.25 0 1.203-.203 3.266-1.797 3.266ZM3.219.14c.281.047.656.047.656.047.047 0 .266 0 .547-.032A2.16 2.16 0 0 0 5.656 1.36c.094.047.11.047.11.063s-.188.016-.313.016A2.55 2.55 0 0 1 3.22.14Z"/><path id="R" d="M2.672-3.125h.36l1.5 2.313c.093.156.327.546.437.687.078.125.11.125.328.125h1.375c.187 0 .344 0 .344-.172 0-.094-.063-.156-.157-.172-.375-.078-.859-.75-1.093-1.062-.079-.094-.579-.75-1.235-1.828.875-.172 1.735-.547 1.735-1.735 0-1.375-1.454-1.86-2.641-1.86H.5c-.188 0-.344 0-.344.173 0 .172.188.172.266.172.578 0 .625.078.625.578v4.984c0 .5-.047.578-.625.578-.078 0-.266 0-.266.172S.313 0 .5 0h2.734c.172 0 .329 0 .329-.172S3.39-.344 3.28-.344c-.562 0-.61-.078-.61-.578Zm1.922-.5c.281-.36.312-.89.312-1.328 0-.484-.062-1.016-.375-1.422.407.094 1.39.406 1.39 1.406 0 .657-.296 1.157-1.327 1.344ZM2.672-5.938c0-.218 0-.546.625-.546.844 0 1.265.359 1.265 1.53 0 1.282-.312 1.47-1.89 1.47ZM1.312-.343c.079-.187.079-.469.079-.547v-5.046c0-.094 0-.36-.079-.547h1.141c-.125.171-.125.359-.125.515V-.89c0 .094 0 .36.078.547Zm2.125-2.781c.079-.016.11-.031.188-.031.156 0 .375-.016.516-.031.156.234 1.234 2.015 2.062 2.843h-.969Z"/><path id="z" d="M6.844-3.266c.156 0 .343 0 .343-.187 0-.203-.187-.203-.328-.203H.891c-.141 0-.329 0-.329.203 0 .187.188.187.329.187Zm.015 1.938c.141 0 .329 0 .329-.203 0-.188-.188-.188-.344-.188H.89c-.141 0-.329 0-.329.188 0 .203.188.203.329.203Z"/><path id="O" d="M4.578-3.188c0-.796-.047-1.593-.39-2.328C3.733-6.484 2.905-6.64 2.5-6.64c-.61 0-1.328.266-1.75 1.188-.313.687-.36 1.469-.36 2.266 0 .75.032 1.64.454 2.406a1.83 1.83 0 0 0 1.64 1c.532 0 1.297-.203 1.735-1.157.312-.687.36-1.468.36-2.25ZM2.484 0c-.39 0-.984-.25-1.156-1.203-.11-.594-.11-1.516-.11-2.11 0-.64 0-1.296.079-1.828.187-1.187.937-1.28 1.187-1.28.329 0 .985.187 1.172 1.171.11.563.11 1.313.11 1.938 0 .75 0 1.421-.11 2.062C3.5-.297 2.937 0 2.484 0Z"/><path id="I" d="M2.938-6.375c0-.25 0-.266-.235-.266C2.078-6 1.203-6 .891-6v.313c.203 0 .78 0 1.296-.266v5.172c0 .36-.03.469-.921.469H.953V0c.344-.031 1.203-.031 1.61-.031.39 0 1.265 0 1.609.031v-.313h-.313c-.906 0-.921-.109-.921-.468Z"/><path id="P" d="M4.078-2.297H6.86c.141 0 .329 0 .329-.203 0-.188-.188-.188-.329-.188H4.08v-2.796c0-.141 0-.329-.204-.329-.203 0-.203.188-.203.329v2.796H.89c-.141 0-.329 0-.329.188 0 .203.188.203.329.203h2.78V.5c0 .14 0 .328.204.328.203 0 .203-.187.203-.328Z"/><path id="A" d="M2.938-1.64v.859c0 .36-.032.469-.766.469h-.203V0c.406-.031.922-.031 1.343-.031.422 0 .938 0 1.36.031v-.313h-.219c-.734 0-.75-.109-.75-.468v-.86h.985v-.312h-.985v-4.531c0-.204 0-.266-.172-.266-.078 0-.11 0-.187.125L.28-1.953v.312Zm.046-.313H.563l2.421-3.719Z"/><path id="l" d="M2.828-6.156c0-.39.25-1.032 1.344-1.094a.117.117 0 0 0 .078-.11c0-.124-.078-.124-.188-.124-.984 0-1.906.515-1.906 1.25v2.28c0 .392 0 .704-.406 1.032-.344.297-.719.313-.938.313C.75-2.594.72-2.547.72-2.5c0 .11.062.11.156.125.656.031 1.14.39 1.25.875.031.11.031.14.031.5V.969c0 .422 0 .734.469 1.11.39.296 1.047.421 1.438.421.109 0 .187 0 .187-.125 0-.094-.047-.094-.156-.11-.625-.03-1.11-.359-1.25-.859-.016-.093-.016-.11-.016-.468v-2.094c0-.453-.094-.625-.406-.953-.203-.204-.5-.297-.781-.391.828-.219 1.187-.688 1.187-1.266Z"/><path id="r" d="M2.156 1.172c0 .39-.265 1.031-1.344 1.094-.062.015-.093.062-.093.109 0 .125.11.125.203.125.969 0 1.89-.5 1.906-1.25v-2.281c0-.39 0-.703.39-1.032.345-.296.735-.312.954-.312.047-.016.078-.063.078-.125 0-.094-.047-.094-.156-.11-.657-.03-1.14-.39-1.25-.874-.016-.11-.016-.141-.016-.5v-1.97c0-.421 0-.734-.484-1.109-.406-.312-1.094-.421-1.422-.421-.094 0-.203 0-.203.125 0 .093.062.093.156.109.625.031 1.125.36 1.25.86.031.093.031.109.031.468v2.094c0 .453.078.625.39.953.22.203.5.297.782.375-.812.234-1.172.703-1.172 1.281Z"/><path id="v" d="M1.578-7.125c0-.172 0-.36-.187-.36-.204 0-.204.188-.204.36v9.266c0 .171 0 .359.204.359.187 0 .187-.188.187-.36Z"/><path id="E" d="M5.469-2.297c.156 0 .343 0 .343-.203 0-.188-.187-.188-.343-.188H1.234C1.36-4.03 2.5-4.983 3.906-4.983H5.47c.156 0 .343 0 .343-.204 0-.203-.187-.203-.343-.203H3.89C2.187-5.39.828-4.094.828-2.5.828-.89 2.188.406 3.891.406h1.578c.156 0 .343 0 .343-.203S5.625 0 5.47 0H3.906C2.5 0 1.36-.953 1.234-2.297Z"/><path id="C" d="M2.031-.016c0-.656-.25-1.046-.64-1.046a.517.517 0 0 0-.532.53c0 .266.204.532.532.532a.58.58 0 0 0 .343-.125c.032-.031.047-.031.047-.031.016 0 .016 0 .016.14 0 .75-.344 1.344-.672 1.672-.11.11-.11.125-.11.157 0 .078.048.109.094.109.11 0 .922-.766.922-1.938Z"/><path id="e" d="M1.906-.531a.534.534 0 0 0-.515-.531.537.537 0 0 0-.532.53.524.524 0 1 0 1.047 0Z"/><path id="n" d="M.875-.594c-.031.156-.094.39-.094.438 0 .172.14.265.297.265a.414.414 0 0 0 .375-.28c0-.016.125-.485.188-.735l.218-.89c.047-.235.11-.454.172-.673.031-.172.11-.469.125-.5.14-.312.672-1.219 1.625-1.219.453 0 .531.375.531.704 0 .609-.484 1.89-.64 2.312-.094.234-.11.36-.11.469 0 .469.36.812.829.812.937 0 1.296-1.453 1.296-1.53 0-.11-.078-.11-.109-.11-.11 0-.11.031-.156.187-.203.672-.531 1.235-1.016 1.235-.172 0-.234-.094-.234-.329 0-.25.078-.484.172-.703.187-.53.61-1.625.61-2.203 0-.656-.423-1.062-1.141-1.062-.907 0-1.391.64-1.563.875-.047-.563-.453-.875-.922-.875-.453 0-.64.39-.734.562-.172.344-.297.938-.297.969 0 .11.094.11.11.11.109 0 .109-.016.171-.235.172-.703.375-1.188.735-1.188.187 0 .296.125.296.454 0 .218-.03.328-.156.843Z"/><path id="m" d="M.875-.594c-.031.156-.094.39-.094.438 0 .172.14.265.297.265a.414.414 0 0 0 .375-.28c0-.016.125-.485.188-.735l.218-.89c.047-.235.11-.454.172-.673.031-.172.11-.469.125-.5.14-.312.672-1.219 1.625-1.219.453 0 .531.375.531.704 0 .25-.062.53-.14.828L3.89-1.5l-.204.75c-.03.203-.124.547-.124.594 0 .172.14.265.28.265.313 0 .376-.25.454-.562.14-.563.516-2.016.594-2.406.03-.125.562-1.329 1.656-1.329.422 0 .531.344.531.704 0 .562-.422 1.703-.625 2.234-.078.234-.125.344-.125.547 0 .469.344.812.813.812.937 0 1.312-1.453 1.312-1.53 0-.11-.094-.11-.125-.11-.094 0-.094.031-.14.187-.157.532-.47 1.235-1.016 1.235-.172 0-.25-.094-.25-.329 0-.25.094-.484.187-.703.188-.53.61-1.625.61-2.203 0-.64-.407-1.062-1.157-1.062-.734 0-1.25.437-1.625.968 0-.124-.03-.468-.312-.703-.25-.218-.563-.265-.813-.265-.906 0-1.39.64-1.562.875-.047-.578-.469-.875-.922-.875-.453 0-.64.39-.734.562a4.68 4.68 0 0 0-.297.969c0 .11.094.11.11.11.109 0 .109-.016.171-.235.172-.703.375-1.188.735-1.188.156 0 .296.079.296.454 0 .218-.03.328-.156.843Z"/><path id="p" d="M.453 1.219c-.078.343-.11.406-.547.406-.11 0-.218 0-.218.188 0 .078.046.125.124.125.266 0 .563-.032.829-.032.343 0 .671.032 1 .032.046 0 .171 0 .171-.204 0-.109-.093-.109-.234-.109-.5 0-.5-.063-.5-.156 0-.125.422-1.75.484-2 .125.297.407.64.922.64 1.157 0 2.407-1.453 2.407-2.921 0-.938-.579-1.594-1.329-1.594-.5 0-.984.36-1.312.75-.094-.547-.531-.75-.89-.75-.47 0-.657.39-.735.562-.188.344-.313.938-.313.969 0 .11.094.11.11.11.11 0 .11-.016.172-.235.172-.703.375-1.188.734-1.188.172 0 .313.079.313.454 0 .234-.032.343-.079.515Zm1.75-4.328c.063-.266.344-.547.516-.704.36-.296.64-.374.812-.374.39 0 .64.343.64.937 0 .594-.327 1.734-.515 2.11-.344.702-.812 1.03-1.187 1.03-.656 0-.781-.828-.781-.89 0-.016 0-.031.03-.156Z"/><path id="q" d="M4.5-4.297c0-.047-.031-.094-.094-.094-.11 0-.515.391-.672.688-.218-.547-.609-.703-.937-.703-1.172 0-2.39 1.468-2.39 2.922C.406-.516.983.109 1.718.109c.422 0 .812-.234 1.172-.593-.094.343-.422 1.687-.454 1.78-.078.282-.156.313-.718.329-.125 0-.219 0-.219.203 0 0 0 .11.125.11.313 0 .672-.032 1-.032.328 0 .688.032 1.031.032.047 0 .172 0 .172-.204 0-.109-.094-.109-.265-.109-.47 0-.47-.063-.47-.156 0-.078.016-.14.032-.219ZM1.75-.109c-.61 0-.64-.766-.64-.938 0-.484.28-1.562.452-1.984.313-.735.829-1.156 1.235-1.156.656 0 .797.812.797.875 0 .062-.547 2.25-.578 2.28-.157.282-.72.923-1.266.923Z"/><path id="a" d="M3.719-3.766c-.188-.375-.469-.64-.922-.64-1.156 0-2.39 1.468-2.39 2.922C.406-.547.952.109 1.718.109c.203 0 .703-.046 1.297-.75a.91.91 0 0 0 .906.75c.36 0 .578-.234.75-.546a6.49 6.49 0 0 0 .297-.985c0-.11-.094-.11-.125-.11-.094 0-.11.048-.14.188-.173.64-.345 1.235-.75 1.235-.282 0-.298-.266-.298-.454 0-.218.016-.312.125-.75.11-.406.125-.515.219-.89l.36-1.39c.062-.282.062-.298.062-.345 0-.171-.11-.265-.281-.265-.25 0-.391.219-.422.437Zm-.64 2.579c-.063.187-.063.203-.204.375-.438.546-.844.703-1.125.703-.5 0-.64-.547-.64-.938 0-.5.312-1.719.546-2.187.313-.579.75-.954 1.157-.954.64 0 .78.813.78.875a.562.562 0 0 1-.03.172Z"/><path id="b" d="M2.375-6.813s0-.109-.125-.109c-.219 0-.953.078-1.219.11-.078 0-.187.015-.187.187 0 .125.094.125.25.125.468 0 .484.063.484.172 0 .062-.078.406-.125.61l-.828 3.25c-.11.5-.156.671-.156 1.015C.469-.516 1 .109 1.734.109c1.172 0 2.407-1.484 2.407-2.921 0-.907-.532-1.594-1.329-1.594-.453 0-.874.297-1.171.593Zm-.922 3.766c.047-.219.047-.234.14-.344.485-.64.938-.796 1.204-.796.36 0 .625.296.625.937 0 .594-.328 1.734-.516 2.11-.328.671-.781 1.03-1.172 1.03-.343 0-.671-.265-.671-1 0-.202 0-.39.156-1.015Z"/><path id="c" d="M3.953-3.781c-.172 0-.297 0-.437.125a.53.53 0 0 0-.188.39c0 .25.188.36.375.36.281 0 .547-.25.547-.64 0-.485-.469-.86-1.172-.86-1.344 0-2.672 1.422-2.672 2.828C.406-.672.984.109 2.031.109c1.422 0 2.25-1.062 2.25-1.171 0-.063-.047-.141-.11-.141-.062 0-.077.031-.14.11-.781.984-1.875.984-1.984.984-.625 0-.906-.485-.906-1.094 0-.406.203-1.375.546-1.984.313-.579.86-1 1.407-1 .328 0 .719.125.86.406Z"/><path id="d" d="M5.14-6.813s0-.109-.124-.109c-.157 0-1.094.094-1.266.11-.078.015-.14.062-.14.187s.093.125.234.125c.484 0 .5.063.5.172l-.032.203-.593 2.36c-.188-.376-.469-.641-.922-.641-1.156 0-2.39 1.468-2.39 2.922C.406-.547.952.109 1.718.109c.203 0 .703-.046 1.297-.75a.91.91 0 0 0 .906.75c.36 0 .578-.234.75-.546a6.49 6.49 0 0 0 .297-.985c0-.11-.094-.11-.125-.11-.094 0-.11.048-.14.188-.173.64-.345 1.235-.75 1.235-.282 0-.298-.266-.298-.454 0-.25.016-.312.047-.484ZM3.079-1.188c-.062.188-.062.204-.203.375-.438.547-.844.704-1.125.704-.5 0-.64-.547-.64-.938 0-.5.312-1.719.546-2.187.313-.579.75-.954 1.157-.954.64 0 .78.813.78.875a.562.562 0 0 1-.03.172Z"/><path id="s" d="M.844-.438C.828-.344.78-.171.78-.156c0 .156.125.218.235.218a.377.377 0 0 0 .28-.14c.032-.063.079-.297.126-.438.031-.125.11-.453.14-.625.047-.156.094-.312.125-.468.079-.282.094-.344.297-.625.188-.282.516-.641 1.047-.641.39 0 .406.36.406.484 0 .422-.296 1.188-.406 1.485-.078.203-.11.265-.11.375 0 .375.298.594.657.594.703 0 1-.954 1-1.063 0-.094-.078-.094-.11-.094-.093 0-.093.047-.124.125-.157.563-.469.844-.735.844-.156 0-.187-.094-.187-.25s.047-.25.172-.563c.078-.218.36-.953.36-1.343 0-.672-.532-.797-.907-.797-.578 0-.969.36-1.172.64-.047-.484-.453-.64-.75-.64s-.453.219-.547.375c-.156.265-.25.656-.25.703 0 .078.094.078.125.078.094 0 .094-.016.14-.203.11-.406.25-.75.516-.75.188 0 .235.156.235.344 0 .125-.063.39-.125.578-.047.187-.11.469-.14.625Z"/><path id="i" d="M2.234-4.484.5-4.406v.468c.594 0 .656 0 .656.391v3.078H.47V0a26.26 26.26 0 0 1 1.219-.031c.296 0 .812.015 1.156.031v-.469h-.61Zm.094-1.672a.767.767 0 0 0-.765-.766.774.774 0 1 0 0 1.547.78.78 0 0 0 .765-.781Z"/></defs><use x="3.939" y="10.661" href="#N"/><use x="13.902" y="10.661" href="#z"/><use x="24.418" y="10.661" href="#l"/><use x="29.399" y="10.661" href="#O"/><use x="34.38" y="10.661" href="#C"/><use x="38.808" y="10.661" href="#I"/><use x="43.79" y="10.661" href="#C"/><path d="m49.483 9.895 1.062-1.03c1.547-1.376 2.14-1.907 2.14-2.907 0-1.14-.89-1.938-2.109-1.938a1.843 1.843 0 0 0-1.859 1.813c0 .547.5.547.531.547.172 0 .516-.11.516-.532a.513.513 0 0 0-.531-.515c-.079 0-.094 0-.125.016.218-.657.765-1.016 1.343-1.016.907 0 1.329.812 1.329 1.625 0 .797-.485 1.578-1.047 2.203l-1.907 2.125c-.109.11-.109.14-.109.375h3.703l.266-1.734h-.235c-.062.296-.124.734-.234.89-.063.078-.719.078-.938.078Z"/><use x="53.199" y="10.661" href="#C"/><path d="M60.517 7.145c.813-.265 1.391-.953 1.391-1.75 0-.812-.875-1.375-1.828-1.375-1 0-1.765.594-1.765 1.36 0 .328.218.515.515.515.297 0 .5-.218.5-.515 0-.485-.469-.485-.61-.485.298-.5.954-.625 1.313-.625.422 0 .969.22.969 1.11 0 .125-.031.703-.281 1.14-.297.485-.64.516-.89.516a3.29 3.29 0 0 1-.392.031c-.078.016-.14.031-.14.125 0 .11.062.11.234.11h.438c.812 0 1.187.671 1.187 1.656 0 1.36-.687 1.64-1.125 1.64-.437 0-1.187-.171-1.531-.75.344.047.656-.171.656-.546a.537.537 0 0 0-.547-.563c-.25 0-.562.14-.562.578 0 .907.922 1.564 2.015 1.564 1.22 0 2.126-.906 2.126-1.922 0-.813-.641-1.594-1.672-1.813Z"/><use x="62.608" y="10.661" href="#C"/><use x="67.039" y="10.661" href="#e"/><use x="71.461" y="10.661" href="#e"/><use x="75.892" y="10.661" href="#e"/><use x="78.659" y="10.661" href="#r"/><use x="4.493" y="25.605" href="#Z"/><use x="13.902" y="25.605" href="#z"/><use x="24.418" y="25.605" href="#l"/><use x="29.399" y="25.605" href="#n"/><path d="M44.156 23.308c.171 0 .359 0 .359-.203 0-.188-.188-.188-.36-.188h-5.39c-.172 0-.344 0-.344.188 0 .203.172.203.344.203Z"/><use x="47.556" y="25.605" href="#m"/><use x="59.07" y="25.605" href="#v"/><use x="64.605" y="25.605" href="#n"/><use x="70.585" y="25.605" href="#C"/><use x="75.016" y="25.605" href="#m"/><use x="86.527" y="25.605" href="#E"/><use x="95.937" y="25.605" href="#N"/><use x="103.132" y="25.605" href="#r"/><use x="3.386" y="47.622" href="#Q"/><use x="13.902" y="47.622" href="#z"/><path d="M28.558 48.419c0-.469 0-1.203-.624-2.016a4.395 4.395 0 0 0-1.641-1.265c1.938-.938 2.266-2.376 2.266-2.938v-5.75c0-.61 0-1.89 1.937-2.844.078-.047.078-.062.078-.203 0-.219 0-.234-.218-.234-.141 0-.157 0-.422.125-.986.484-1.954 1.281-2.172 2.5-.031.187-.031.281-.031.953v5.547c-.094 1.047-.704 1.953-1.844 2.578-.157.094-.157.094-.157.25 0 .172 0 .187.141.265.672.376 1.625 1.094 1.828 2.329.031.234.031.25.031.359v5.922c0 1.453 1 2.39 2.235 2.984.219.11.25.11.39.11.22 0 .22 0 .22-.22 0-.155 0-.171-.079-.218-.422-.203-1.703-.844-1.906-2.281-.031-.14-.031-.25-.031-.844Z"/><use x="33.085" y="40.882" href="#p"/><path fill="none" stroke="#000" stroke-miterlimit="10" stroke-width=".398" d="M33.086 45.133h5.011"/><use x="33.189" y="54.456" href="#q"/><use x="42.061" y="47.622" href="#v"/><use x="47.595" y="47.622" href="#p"/><use x="52.607" y="47.622" href="#C"/><use x="57.039" y="47.622" href="#q"/><use x="64.608" y="47.622" href="#E"/><use x="74.017" y="47.622" href="#Z"/><use x="80.659" y="47.622" href="#C"/><use x="85.09" y="47.622" href="#q"/><path d="M98.94 40.872c.078-.14.078-.156.078-.188 0-.078-.062-.203-.203-.203-.11 0-.14.063-.218.204l-4.47 8.703c-.077.14-.077.156-.077.187 0 .078.062.203.187.203s.156-.062.219-.203Z"/><use x="92.659" y="47.622" href="#z"/><use x="103.178" y="47.622" href="#O"/><path d="M112.296 48.263c0-1.188.61-2.204 1.938-2.922.078-.032.078-.047.078-.204 0-.171 0-.171-.11-.234-1.796-.953-1.905-2.422-1.905-2.719v-5.921c0-1.438-.985-2.391-2.235-2.985-.218-.11-.234-.11-.375-.11-.218 0-.218.016-.218.235 0 .14 0 .156.078.219.437.203 1.703.844 1.906 2.281.015.14.015.25.015.844v5.11c0 .468 0 1.202.641 2 .39.5.953.968 1.64 1.265-1.937.937-2.28 2.375-2.28 2.953v5.734c0 .516 0 1.094-.579 1.828-.437.563-.937.813-1.359 1.032-.063.031-.063.078-.063.203 0 .203 0 .219.22.219.14 0 .155 0 .405-.125 1-.485 1.97-1.266 2.172-2.485.032-.203.032-.297.032-.953Z"/><use x="3.939" y="72.529" href="#R"/><use x="13.902" y="72.529" href="#z"/><path d="M28.121 72.798c0-.64 0-.781-.11-1.062-.296-.907-1.187-1.438-1.843-1.688 1.156-.5 1.719-1.156 1.906-1.86.016-.124.047-.296.047-.343v-4.484c0-.829.656-1.47 1.594-1.86.14-.078.156-.078.156-.234 0-.188-.016-.203-.203-.203-.281 0-1.031.375-1.438.687-.328.266-.859.828-.874 1.5v3.953c0 .891 0 1.22-.516 1.829-.125.14-.406.453-1.094.78-.125.063-.14.063-.14.22 0 .156.015.171.203.265 1.062.485 1.546 1.328 1.546 1.953v4.156c0 .47 0 1.063.516 1.579.219.218.422.437.906.687.11.063.625.328.891.328.188 0 .203 0 .203-.203 0-.125 0-.156-.094-.187-.578-.25-1.468-.72-1.64-1.657-.016-.109-.016-.437-.016-.671Z"/><path d="m36.312 65.607-1.438.11v.312c.703 0 .781.063.781.563v5.187c0 .438-.109.438-.78.438v.312c.327-.016.859-.031 1.109-.031s.734.015 1.109.031v-.313c-.672 0-.781 0-.781-.437Z"/><path d="m39.08 68.123-1.391.11v.312c.64 0 .734.062.734.546v2.688c0 .438-.109.438-.78.438v.312c.312-.016.859-.031 1.093-.031.36 0 .703.015 1.047.031v-.313c-.672 0-.703-.046-.703-.437Zm.03-1.735a.514.514 0 0 0-.515-.53.537.537 0 0 0-.531.53c0 .266.219.532.531.532a.514.514 0 0 0 .516-.532Z"/><path d="M41.175 69.107v2.672c0 .438-.11.438-.782.438v.312c.36-.016.86-.031 1.141-.031.25 0 .766.015 1.11.031v-.313c-.672 0-.782 0-.782-.437v-1.844c0-1.031.719-1.594 1.344-1.594.64 0 .75.532.75 1.11v2.328c0 .438-.11.438-.781.438v.312c.344-.016.86-.031 1.125-.031.25 0 .781.015 1.11.031v-.313c-.657 0-.766 0-.766-.437v-1.844c0-1.031.703-1.594 1.343-1.594.625 0 .735.532.735 1.11v2.328c0 .438-.11.438-.782.438v.312c.344-.016.86-.031 1.125-.031.266 0 .782.015 1.125.031v-.313c-.515 0-.765 0-.78-.296v-1.907c0-.859 0-1.156-.313-1.515-.141-.172-.47-.375-1.047-.375-.828 0-1.282.593-1.438.984-.14-.875-.875-.984-1.328-.984-.734 0-1.203.422-1.484 1.047v-1.047l-1.407.11v.312c.704 0 .782.062.782.562Z"/><use x="31.06" y="78.507" href="#s"/><path d="M42.39 76.929c-.875.64-.984 1.562-.984 1.562 0 .11.062.11.156.11.125 0 .156 0 .188-.125.046-.172.156-.61.515-1 .407-.422.75-.532 1.047-.625.031-.016.063-.047.063-.078 0-.079-.032-.094-.125-.125-1-.313-1.36-1.032-1.516-1.641-.016-.078-.078-.078-.172-.078-.094 0-.156 0-.156.094 0 .015.062.484.406.968.156.235.36.438.578.594h-5.593c-.11 0-.282 0-.282.172s.172.172.281.172Z"/><path d="M47.957 76.601c-.375-.438-.484-.547-.75-.735a2.13 2.13 0 0 0-1.25-.437c-.875 0-1.5.75-1.5 1.578 0 .813.61 1.563 1.469 1.563.969 0 1.656-.782 1.906-1.157.36.438.485.547.735.735.437.312.875.421 1.265.421.86 0 1.485-.734 1.485-1.562 0-.828-.594-1.578-1.47-1.578-.968 0-1.64.797-1.89 1.172Zm.219.25c.281-.453.89-1.157 1.734-1.157.72 0 1.22.641 1.22 1.313 0 .656-.548 1.188-1.188 1.188-.657 0-1.094-.532-1.766-1.344Zm-.578.297c-.266.453-.875 1.171-1.735 1.171-.717 0-1.203-.64-1.203-1.312s.547-1.188 1.188-1.188c.64 0 1.094.532 1.75 1.329Z"/><use x="53.53" y="72.529" href="#q"/><use x="57.977" y="74.023" href="#s"/><use x="66.168" y="72.529" href="#v"/><path d="M74.999 74.919c0-.03 0-.046-.172-.218-1.234-1.25-1.563-3.14-1.563-4.672 0-1.734.375-3.469 1.61-4.703.125-.125.125-.14.125-.172 0-.078-.031-.11-.094-.11-.11 0-1 .688-1.594 1.954-.499 1.093-.625 2.203-.625 3.031 0 .781.11 1.984.657 3.125.609 1.219 1.453 1.875 1.562 1.875.063 0 .094-.031.094-.11Z"/><use x="75.577" y="72.529" href="#q"/><use x="80.024" y="74.023" href="#s"/><path d="M88.322 70.029c0-.766-.11-1.969-.656-3.11-.594-1.217-1.453-1.873-1.547-1.873a.107.107 0 0 0-.11.109c0 .031 0 .047.188.234.984.985 1.547 2.563 1.547 4.641 0 1.719-.36 3.469-1.594 4.719-.14.125-.14.14-.14.172 0 .062.046.109.109.109.094 0 1-.688 1.578-1.953.516-1.094.625-2.203.625-3.047Z"/><use x="89.321" y="74.023" href="#s"/><path d="M98.574 72.445c.11 0 .281 0 .281-.156 0-.188-.156-.188-.28-.188h-3.236c.11-1 .953-1.75 2.047-1.75h1.187c.11 0 .281 0 .281-.172s-.156-.172-.28-.172h-1.22c-1.295 0-2.358 1.016-2.358 2.266 0 1.281 1.078 2.281 2.36 2.281h1.218c.11 0 .281 0 .281-.172 0-.171-.156-.171-.28-.171h-1.189c-1.094 0-1.938-.75-2.047-1.766Z"/><path d="M100.693 69.663c-.078-.092-.078-.092-.156-.17h.828l2.36 3.17v1Zm0 .407 3 3.984c.063.078.11.094.156.094.11 0 .11-.11.11-.219v-3.936c0-.39.062-.485.39-.5.047 0 .157 0 .157-.11 0-.14-.11-.14-.235-.14h-1.015c-.125 0-.235 0-.235.14 0 .11.125.11.203.11.391.015.454.14.454.515v2.188l-2.11-2.844c-.078-.11-.094-.11-.25-.11h-1.219c-.125 0-.218 0-.218.141 0 .094.093.11.14.11.188.015.313.14.39.218-.015.047-.015.063-.015.172v3.39c0 .375-.062.5-.406.5-.078 0-.203.016-.203.125 0 .125.11.125.234.125h1.078c.125 0 .235 0 .235-.125 0-.11-.11-.125-.203-.125-.391 0-.438-.14-.438-.516Z"/><path d="M114.48 66.591c.171 0 .359 0 .359-.203s-.188-.203-.36-.203h-2.67c-1.722 0-3.064 1.314-3.064 2.89 0 1.595 1.375 2.892 3.063 2.892h2.671c.172 0 .36 0 .36-.204 0-.203-.188-.203-.36-.203h-2.656c-1.578 0-2.686-1.171-2.686-2.484 0-1.36 1.14-2.485 2.687-2.485Zm-5.188 6.908c-.172 0-.344 0-.344.203 0 .187.172.187.344.187h5.188c.171 0 .359 0 .359-.187 0-.203-.188-.203-.36-.203Z"/><use x="118.433" y="72.529" href="#Q"/><path d="M129.885 72.86c0-.874 0-1.203.516-1.828.11-.109.422-.453 1.093-.765.125-.063.141-.078.141-.219 0-.11 0-.14-.016-.172-.015-.015-.03-.015-.187-.094-1.047-.484-1.547-1.328-1.547-1.968v-4.14c0-.47 0-1.063-.515-1.579-.22-.219-.422-.438-.907-.688-.094-.046-.625-.343-.89-.343-.188 0-.204.015-.204.203 0 .14 0 .172.094.219.39.156 1.453.609 1.64 1.625.017.109.017.453.017.687v3.485c0 .64 0 .78.109 1.062.297.906 1.187 1.422 1.844 1.688-1.157.484-1.72 1.156-1.907 1.859a1.75 1.75 0 0 0-.046.344v4.484c0 .813-.626 1.438-1.594 1.86-.14.062-.157.078-.157.218 0 .203.016.203.204.203.28 0 1.015-.36 1.437-.672.328-.265.86-.828.875-1.5v-2.406Z"/><path d="M10.486 85.168c0-.171 0-.328-.172-.328 0 0-.156 0-.172.172-.031.282-.266.282-.328.282-.36 0-.703-.141-.906-.235-.5-.219-.938-.219-1.094-.219-1.656 0-3.5 1.047-3.5 3.594 0 2.547 1.797 3.61 3.516 3.61.53 0 1.25-.11 1.968-.547.454-.282.97-.782.97-.922s-.157-.203-.204-.203c-.078 0-.11.03-.219.14a3.184 3.184 0 0 1-2.343 1.047c-1.547 0-1.938-1.562-1.938-3.11 0-1.952.719-3.265 1.781-3.265.75 0 1.953.734 2.281 1.781.032.094.063.204.188.204.172 0 .172-.172.172-.344Zm-.344 1.032a4.465 4.465 0 0 0-.5-.563.64.64 0 0 0 .172.016c.11 0 .25-.031.328-.078Zm-3.547-.782c-.219.235-.875 1.079-.875 3.032 0 1 .14 2.375 1.047 3.094-1.64-.533-2.11-1.876-2.11-3.094 0-1.844 1-2.719 1.938-3.047Z"/><use x="13.902" y="91.856" href="#z"/><use x="24.418" y="91.856" href="#l"/><use x="29.399" y="91.856" href="#a"/><use x="36.879" y="91.856" href="#P"/><use x="46.842" y="91.856" href="#b"/><use x="51.117" y="91.856" href="#i"/><use x="57.067" y="91.856" href="#v"/><use x="62.602" y="91.856" href="#a"/><use x="67.868" y="91.856" href="#C"/><use x="72.3" y="91.856" href="#b"/><use x="79.339" y="91.856" href="#E"/><use x="88.748" y="91.856" href="#R"/><use x="95.943" y="91.856" href="#r"/><path d="M10.089 100.894c0-.5.047-.578.625-.578.094 0 .266 0 .266-.172s-.157-.172-.344-.172H7.933c-.188 0-.344 0-.344.172s.188.172.266.172c.578 0 .61.078.61.578v2.218H6.057v-2.218c0-.5.047-.578.625-.578.078 0 .25 0 .25-.172s-.14-.172-.328-.172H3.902c-.188 0-.344 0-.344.172s.187.172.266.172c.562 0 .609.078.609.578v4.984c0 .469-.031.578-.563.578-.14 0-.312 0-.312.172s.156.172.344.172h2.703c.187 0 .328 0 .328-.172s-.172-.172-.281-.172c-.563 0-.594-.094-.594-.578v-2.312h2.406v2.312c0 .469-.031.578-.547.578-.156 0-.328 0-.328.172s.157.172.344.172h2.703c.188 0 .344 0 .344-.172s-.172-.172-.282-.172c-.578 0-.609-.094-.609-.578Zm-5.312-.032c0-.109 0-.359-.079-.546h1.094c-.078.187-.078.437-.078.546v5.048c0 .11 0 .36.078.547H4.698c.079-.187.079-.437.079-.547Zm4.046 0c0-.109 0-.359-.078-.546h1.079c-.079.187-.079.437-.079.546v5.048c0 .11 0 .36.079.547H8.745c.079-.187.079-.437.079-.547Z"/><use x="13.902" y="106.8" href="#z"/><use x="24.418" y="106.8" href="#l"/><use x="29.399" y="106.8" href="#a"/><use x="36.879" y="106.8" href="#P"/><use x="46.842" y="106.8" href="#b"/><use x="51.117" y="106.8" href="#i"/><use x="56.514" y="106.8" href="#P"/><use x="66.476" y="106.8" href="#c"/><path d="M71.616 102.394v.468c.172 0 .39 0 .531.016.22.047.22.172.22.39v3.955c0 .5-.141 1.219-.735 1.219-.172 0-.25-.032-.39-.063a.624.624 0 0 0 .233-.5.617.617 0 0 0-.625-.625c-.374 0-.625.281-.625.64 0 .563.61.907 1.422.907.86 0 1.797-.531 1.797-1.578v-4.906Zm1.828-1.75a.767.767 0 0 0-.765-.766.774.774 0 1 0 .766.766Z"/><use x="76.502" y="106.8" href="#P"/><use x="86.465" y="106.8" href="#d"/><path d="M93.79 104.44v-4.562l-1.765.078v.469c.61 0 .688 0 .688.39v5.516h-.688v.469c.36-.016.828-.031 1.188-.031.375 0 .843.015 1.203.031v-.469h-.688v-1.265c.297-.235.375-.297.578-.422l1 1.25c.094.125.25.312.25.344 0 .093-.172.093-.312.093v.469a52.51 52.51 0 0 1 1.219-.031c.359 0 .703.015 1.046.031v-.469h-.171c-.438 0-.47-.047-.594-.203l-1.688-2.094 1.297-1.014c.14-.11.234-.172.906-.172v-.469c-.28.031-.53.031-.78.031-.266 0-.923-.03-1.157-.03v.468c.234 0 .265.031.344.11Z"/><use x="100.464" y="106.8" href="#v"/><use x="105.999" y="106.8" href="#a"/><use x="111.265" y="106.8" href="#C"/><use x="115.697" y="106.8" href="#b"/><use x="119.973" y="106.8" href="#C"/><use x="124.394" y="106.8" href="#c"/><use x="128.706" y="106.8" href="#C"/><use x="133.137" y="106.8" href="#d"/><use x="141.089" y="106.8" href="#E"/><use x="150.498" y="106.8" href="#R"/><use x="157.693" y="106.8" href="#r"/><path d="M8.517 120.704c-.187 0-.328 0-.328.172 0 .125.094.172.188.172.343.046.343.437.343.484 0 .281-.11.422-.39.797-.188.25-.407.531-.563.734-.984-1.515-1.031-1.687-1.11-1.906a1.26 1.26 0 0 1 .485-.11c.078 0 .25 0 .25-.171 0-.172-.156-.172-.328-.172H4.501c-.187 0-.328 0-.328.172 0 .015 0 .14.141.172.297.046.344.093.516.312.562.719 1.984 2.86 2.187 3.156l-1.078 1.236c-.75.827-1.203 1.359-1.594 1.436-.11.016-.219.031-.219.172.001.172.158.172.329.172h1.703c.187 0 .344 0 .344-.172 0-.14-.141-.172-.22-.172-.374-.062-.374-.5-.374-.5 0-.265.172-.453.218-.531.36-.422.75-.86 1.126-1.281 1.108 1.672 1.187 1.936 1.264 2.172-.172.109-.406.14-.61.14-.093 0-.265 0-.265.172s.158.172.329.172h2.672c.172 0 .328 0 .328-.172 0-.11-.078-.156-.156-.172-.172-.031-.219-.078-.25-.094-.14-.124-.781-1.046-1.188-1.656l-1.359-2c.016-.031.125-.172.266-.36l.484-.64c.5-.656 1.031-1.312 1.828-1.39.11 0 .235-.016.235-.172 0-.172-.141-.172-.329-.172Zm1.078.344c-.172.14-.328.296-.515.468a.847.847 0 0 0-.125-.468Zm-4.046 5.64c0 .016.032.125.032.14a.872.872 0 0 0 .125.36h-.657Zm.75-5.64c0 .203 0 .328.625 1.343.36.563 2.532 3.891 3.25 4.797H8.861c.016-.031.016-.078.016-.11 0-.155-.11-.421-.5-1.109-.407-.656-2.547-3.906-3.344-4.921Z"/><use x="13.902" y="127.532" href="#z"/><path d="M33.434 121.266a3.93 3.93 0 0 1-1.047.266 1.72 1.72 0 0 0 .797-.984c-.36.203-.735.359-1.141.437a1.83 1.83 0 0 0-1.313-.578 1.797 1.797 0 0 0-1.75 2.203 5.15 5.15 0 0 1-3.702-1.86 1.8 1.8 0 0 0-.25.907c0 .61.313 1.172.813 1.484a1.81 1.81 0 0 1-.828-.218v.015c0 .875.625 1.594 1.453 1.766a2.571 2.571 0 0 1-.485.062c-.109 0-.234-.015-.343-.03a1.824 1.824 0 0 0 1.687 1.233c-.61.5-1.39.782-2.234.782-.14 0-.266 0-.422-.031a5.028 5.028 0 0 0 2.749.812c3.297 0 5.11-2.734 5.11-5.11 0-.077.015-.156 0-.234.359-.265.656-.562.906-.922Z"/><use x="34.859" y="120.792" href="#I"/><path d="M43.496 117.62v.328c0 2.328-1.031 2.781-1.61 2.781-.171 0-.718-.015-.983-.359.437 0 .515-.281.515-.453 0-.313-.234-.453-.453-.453-.156 0-.453.078-.453.469 0 .671.531 1.078 1.375 1.078 1.297 0 2.515-1.36 2.515-3.5 0-2.688-1.156-3.36-2.046-3.36-.547 0-1.032.188-1.454.625-.421.454-.64.875-.64 1.625 0 1.235.875 2.22 1.984 2.22.61 0 1.016-.423 1.25-1Zm-1.234.766c-.156 0-.625 0-.922-.625-.188-.375-.188-.86-.188-1.36 0-.53 0-1 .22-1.375.265-.5.64-.625.984-.625.468 0 .796.344.968.782.11.328.157.953.157 1.406 0 .828-.344 1.797-1.22 1.797Z"/><path fill="none" stroke="#000" stroke-miterlimit="10" stroke-width=".398" d="M34.859 125.043h9.961"/><use x="34.859" y="134.366" href="#A"/><use x="39.84" y="134.366" href="#A"/></svg>